SplineFontDB: 3.0
FontName: ooyala-slick-type
FullName: ooyala-slick-type
FamilyName: ooyala-slick-type
Weight: Book
Version: 1.0
ItalicAngle: 0
UnderlinePosition: 0
UnderlineWidth: 0
Ascent: 480
Descent: 32
InvalidEm: 0
sfntRevision: 0x00010000
LayerCount: 2
Layer: 0 1 "Back" 1
Layer: 1 1 "Fore" 0
XUID: [1021 938 1791106592 16369544]
StyleMap: 0x0040
FSType: 8
OS2Version: 3
OS2_WeightWidthSlopeOnly: 0
OS2_UseTypoMetrics: 0
CreationTime: 1463690356
ModificationTime: 1536240894
PfmFamily: 17
TTFWeight: 400
TTFWidth: 5
LineGap: 46
VLineGap: 0
Panose: 2 0 5 9 0 0 0 0 0 0
OS2TypoAscent: 480
OS2TypoAOffset: 0
OS2TypoDescent: -32
OS2TypoDOffset: 0
OS2TypoLinegap: 46
OS2WinAscent: 506
OS2WinAOffset: 0
OS2WinDescent: -3
OS2WinDOffset: 0
HheadAscent: 506
HheadAOffset: 0
HheadDescent: 0
HheadDOffset: 0
OS2SubXSize: 332
OS2SubYSize: 358
OS2SubXOff: 0
OS2SubYOff: 71
OS2SupXSize: 332
OS2SupYSize: 358
OS2SupXOff: 0
OS2SupYOff: 245
OS2StrikeYSize: 25
OS2StrikeYPos: 132
OS2CapHeight: 429
OS2XHeight: 452
OS2Vendor: 'PfEd'
OS2CodePages: 00000001.00000000
OS2UnicodeRanges: 00000001.00000000.00000000.00000000
MarkAttachClasses: 1
DEI: 91125
ShortTable: maxp 16
  1
  0
  66
  232
  19
  0
  0
  2
  0
  1
  1
  0
  64
  0
  0
  0
EndShort
LangName: 1033 "" "" "" "FontForge 2.0 : ooyala-slick-type : 19-5-2016" "" "Version 1.0"
GaspTable: 1 65535 2 0
Encoding: UnicodeBmp
UnicodeInterp: none
NameList: AGL For New Fonts
DisplaySize: -48
AntiAlias: 1
FitToEm: 0
WinInfo: 54 27 5
Grid
-512 78.8000030518 m 0
 1024 78.8000030518 l 1024
484.5 736 m 0
 484.5 -288 l 1024
22.5 736 m 0
 22.5 -288 l 1024
-512 55.8000030518 m 0
 1024 55.8000030518 l 1024
-512 457.799987793 m 0
 1024 457.799987793 l 1024
EndSplineSet
BeginChars: 65538 68

StartChar: parenleft
Encoding: 40 40 3
Width: 510
GlyphClass: 2
Flags: W
LayerCount: 2
Fore
SplineSet
271 417 m 1,0,1
 271 411 271 411 266 411 c 0,2,3
 181 409 181 409 127 348 c 0,4,5
 107 325 107 325 96 297 c 0,6,7
 76 247 76 247 86.5 195 c 128,-1,8
 97 143 97 143 136 101 c 2,9,-1
 137 100 l 2,10,11
 185 55 185 55 246.5 49 c 128,-1,12
 308 43 308 43 358.5 74 c 128,-1,13
 409 105 409 105 432 161 c 0,14,15
 440 179 440 179 458 174 c 0,16,17
 467 171 467 171 471 163 c 128,-1,18
 475 155 475 155 471 147 c 0,19,20
 436 61 436 61 352 25 c 0,21,22
 310 6 310 6 265 6 c 0,23,24
 178 6 178 6 108 70 c 1,25,-1
 108 71 l 1,26,27
 60 121 60 121 46.5 186.5 c 128,-1,28
 33 252 33 252 58 312 c 0,29,30
 70 344 70 344 95 374 c 0,31,32
 162 453 162 453 266 453 c 0,33,34
 272 453 272 453 272 446 c 2,35,-1
 272 417 l 1,36,-1
 271 417 l 1,0,1
455 426 m 0,37,38
 446 421 446 421 381 384 c 2,39,-1
 307 341 l 2,40,41
 306 340 306 340 305 340.5 c 128,-1,42
 304 341 304 341 304 342 c 2,43,-1
 304 513 l 2,44,45
 304 516 304 516 306 514 c 2,46,-1
 455 429 l 2,47,48
 456 427 456 427 455 426 c 0,37,38
EndSplineSet
EndChar

StartChar: less
Encoding: 60 60 4
Width: 510
GlyphClass: 2
Flags: W
LayerCount: 2
Fore
SplineSet
124 270 m 0,0,1
 145 282 145 282 293 368 c 2,2,-1
 461 465 l 2,3,4
 470 469 470 469 477 464.5 c 128,-1,5
 484 460 484 460 484 452 c 2,6,-1
 484 62 l 2,7,8
 484 53 484 53 477 48.5 c 128,-1,9
 470 44 470 44 461 49 c 2,10,-1
 124 243 l 2,11,12
 117 248 117 248 117 256.5 c 128,-1,13
 117 265 117 265 124 270 c 0,0,1
38 56 m 2,14,15
 33 56 33 56 28.5 60.5 c 128,-1,16
 24 65 24 65 24 72 c 2,17,-1
 24 442 l 2,18,19
 24 449 24 449 28.5 453.5 c 128,-1,20
 33 458 33 458 38 458 c 2,21,-1
 58 458 l 2,22,23
 74 458 74 458 74 442 c 2,24,-1
 74 72 l 2,25,26
 74 56 74 56 58 56 c 2,27,-1
 38 56 l 2,14,15
EndSplineSet
EndChar

StartChar: greater
Encoding: 62 62 5
Width: 512
GlyphClass: 2
Flags: W
LayerCount: 2
Fore
SplineSet
435 254 m 2,0,-1
 78 50 l 2,1,2
 77 49 77 49 77 51 c 2,3,-1
 77 461 l 1,4,-1
 78 462 l 1,5,-1
 434 257 l 2,6,7
 435 257 435 257 435.5 256 c 128,-1,8
 436 255 436 255 435 254 c 2,0,-1
EndSplineSet
EndChar

StartChar: at
Encoding: 64 64 6
Width: 510
GlyphClass: 2
Flags: W
LayerCount: 2
Fore
SplineSet
176 136 m 1,0,-1
 434 387 l 2,1,2
 449 401 449 401 463 398.5 c 128,-1,3
 477 396 477 396 478 383 c 128,-1,4
 479 370 479 370 467 356 c 2,5,-1
 200 96 l 2,6,7
 185 82 185 82 176 81.5 c 128,-1,8
 167 81 167 81 152 95 c 2,9,-1
 43 201 l 2,10,11
 31 213 31 213 34 226.5 c 128,-1,12
 37 240 37 240 49.5 242 c 128,-1,13
 62 244 62 244 76 233 c 2,14,-1
 176 136 l 1,0,-1
EndSplineSet
EndChar

StartChar: share-atom
Encoding: 65 65 7
Width: 512
GlyphClass: 2
Flags: W
LayerCount: 2
Fore
SplineSet
36 118 m 0,0,1
 38 154 38 154 70 169 c 0,2,3
 104 184 104 184 131 160 c 0,4,5
 136 155 136 155 142 159 c 0,6,7
 162 173 162 173 173 180 c 0,8,9
 178 182 178 182 175 188 c 0,10,11
 160 220 160 220 171.5 254.5 c 128,-1,12
 183 289 183 289 214 306 c 0,13,14
 232 314 232 314 242 315 c 0,15,16
 246 315 246 315 246 320 c 2,17,-1
 246 369 l 2,18,19
 246 373 246 373 242 374 c 0,20,21
 206 384 206 384 200 421 c 0,22,23
 196 444 196 444 210.5 463 c 128,-1,24
 225 482 225 482 248 486 c 0,25,26
 271 489 271 489 290 475 c 128,-1,27
 309 461 309 461 312 439 c 0,28,29
 316 414 316 414 302.5 396 c 128,-1,30
 289 378 289 378 265 373 c 0,31,32
 262 373 262 373 262 369 c 2,33,-1
 262 321 l 2,34,35
 262 316 262 316 267 316 c 0,36,37
 321 308 321 308 341 258 c 0,38,39
 355 221 355 221 338 188 c 0,40,41
 336 184 336 184 340 180 c 0,42,43
 362 166 362 166 373 158 c 0,44,45
 377 155 377 155 381 159 c 0,46,47
 409 187 409 187 445 168 c 0,48,49
 461 161 461 161 470 144.5 c 128,-1,50
 479 128 479 128 477 111 c 0,51,52
 475 93 475 93 463 79.5 c 128,-1,53
 451 66 451 66 433 62 c 0,54,55
 401 54 401 54 379 78 c 0,56,57
 356 105 356 105 367 136 c 0,58,59
 368 143 368 143 363 146 c 0,60,61
 352 153 352 153 332 167 c 0,62,63
 328 170 328 170 324 166 c 0,64,65
 298 138 298 138 260.5 136.5 c 128,-1,66
 223 135 223 135 195 161 c 0,67,68
 193 162 193 162 190.5 165.5 c 128,-1,69
 188 169 188 169 186 169 c 0,70,71
 183 169 183 169 174 162 c 0,72,73
 172 161 172 161 163 155 c 128,-1,74
 154 149 154 149 149 146 c 0,75,76
 145 144 145 144 146 138 c 0,77,78
 155 116 155 116 144.5 94 c 128,-1,79
 134 72 134 72 111 64 c 0,80,81
 88 57 88 57 67 68 c 128,-1,82
 46 79 46 79 38 102 c 0,83,84
 36 112 36 112 36 118 c 0,0,1
EndSplineSet
EndChar

StartChar: share-globe
Encoding: 66 66 8
Width: 512
GlyphClass: 2
Flags: W
LayerCount: 2
Fore
SplineSet
256 12 m 128,-1,1
 155 12 155 12 83.5 83.5 c 128,-1,2
 12 155 12 155 12 256 c 128,-1,3
 12 357 12 357 83.5 428.5 c 128,-1,4
 155 500 155 500 256 500 c 128,-1,5
 357 500 357 500 428.5 428.5 c 128,-1,6
 500 357 500 357 500 256 c 128,-1,7
 500 155 500 155 428.5 83.5 c 128,-1,0
 357 12 357 12 256 12 c 128,-1,1
256 479 m 128,-1,9
 164 479 164 479 98.5 413.5 c 128,-1,10
 33 348 33 348 33 256 c 128,-1,11
 33 164 33 164 98.5 98.5 c 128,-1,12
 164 33 164 33 256 33 c 128,-1,13
 348 33 348 33 413.5 98.5 c 128,-1,14
 479 164 479 164 479 256 c 128,-1,15
 479 348 479 348 413.5 413.5 c 128,-1,8
 348 479 348 479 256 479 c 128,-1,9
211 399 m 1,16,-1
 225 386 l 1,17,-1
 225 374 l 1,18,-1
 225 375 l 2,19,20
 227 376 227 376 237 374 c 2,21,-1
 257 371 l 2,22,23
 277 371 277 371 277 374 c 2,24,-1
 277 388 l 1,25,26
 291 398 291 398 293 400 c 0,27,28
 294 403 294 403 293 409 c 2,29,-1
 287 421 l 1,30,-1
 268 421 l 1,31,-1
 247 420 l 1,32,-1
 241 429 l 1,33,-1
 241 435 l 2,34,35
 239 436 239 436 231 429 c 0,36,37
 225 423 225 423 191 416 c 0,38,39
 186 415 186 415 192 414 c 2,40,-1
 196 414 l 1,41,-1
 191 392 l 1,42,-1
 217 407 l 1,43,-1
 211 399 l 1,16,-1
125 344 m 1,44,-1
 102 307 l 1,45,-1
 102 292 l 1,46,-1
 92 267 l 1,47,-1
 97 249 l 1,48,-1
 99 237 l 1,49,-1
 103 221 l 2,50,51
 109 209 109 209 112 207 c 2,52,-1
 124 201 l 1,53,54
 124 191 124 191 128 191 c 2,55,-1
 136 186 l 1,56,-1
 140 175 l 1,57,-1
 155 157 l 1,58,59
 162 158 162 158 165 150 c 2,60,-1
 168 142 l 2,61,62
 172 131 172 131 168 126 c 2,63,-1
 162 117 l 1,64,-1
 186 95 l 1,65,-1
 207 88 l 1,66,67
 211 81 211 81 228 77 c 2,68,-1
 245 74 l 1,69,-1
 266 77 l 1,70,-1
 282 92 l 1,71,-1
 301 92 l 1,72,-1
 308 89 l 1,73,-1
 316 109 l 1,74,-1
 319 138 l 1,75,-1
 319 150 l 1,76,-1
 317 152 l 2,77,78
 315 153 315 153 314 154 c 2,79,-1
 307 161 l 1,80,-1
 299 165 l 1,81,-1
 279 184 l 1,82,-1
 263 192 l 1,83,-1
 238 187 l 1,84,-1
 222 188 l 1,85,86
 213 182 213 182 209 181 c 2,87,-1
 201 179 l 1,88,-1
 190 177 l 2,89,90
 184 174 184 174 176 174 c 2,91,-1
 162 174 l 1,92,-1
 158 175 l 1,93,-1
 154 178 l 1,94,-1
 151 183 l 1,95,-1
 147 191 l 1,96,97
 148 198 148 198 147 201 c 2,98,-1
 145 203 l 2,99,100
 145 202 145 202 145 205 c 128,-1,101
 145 208 145 208 140 205 c 2,102,-1
 145 210 l 2,103,104
 152 215 152 215 159 219 c 128,-1,105
 166 223 166 223 170 224 c 2,106,-1
 174 226 l 1,107,-1
 194 236 l 1,108,-1
 195 249 l 1,109,-1
 195 268 l 1,110,-1
 193 280 l 2,111,112
 189 301 189 301 193 307 c 2,113,-1
 194 318 l 1,114,-1
 194 330 l 1,115,116
 186 328 186 328 176 344 c 0,117,118
 170 352 170 352 175 353 c 0,119,120
 177 354 177 354 172 356 c 0,121,122
 171 357 171 357 167 359 c 2,123,-1
 145 370 l 1,124,125
 133 367 133 367 126 366 c 0,126,127
 123 365 123 365 120 362 c 2,128,-1
 116 358 l 1,129,-1
 115 355 l 1,130,-1
 117 336 l 1,131,-1
 125 344 l 1,44,-1
406 360 m 1,132,-1
 416 348 l 1,133,-1
 419 334 l 1,134,-1
 423 324 l 1,135,-1
 423 318 l 1,136,-1
 421 306 l 1,137,-1
 429 280 l 1,138,-1
 437 261 l 1,139,-1
 440 246 l 1,140,-1
 442 236 l 2,141,142
 439 237 439 237 438 232 c 0,143,144
 437 231 437 231 437 229 c 2,145,-1
 429 204 l 1,146,-1
 425 193 l 2,147,148
 424 188 424 188 423.5 186.5 c 128,-1,149
 423 185 423 185 422.5 184.5 c 128,-1,150
 422 184 422 184 421 183.5 c 128,-1,151
 420 183 420 183 417.5 179.5 c 128,-1,152
 415 176 415 176 411 170 c 2,153,-1
 404 161 l 1,154,-1
 404 162 l 2,155,156
 404 168 404 168 395 162 c 2,157,-1
 388 156 l 2,158,159
 390 157 390 157 390 156 c 2,160,-1
 387 154 l 1,161,-1
 384 150 l 1,162,-1
 382 150 l 2,163,164
 381 150 381 150 381 150.5 c 128,-1,165
 381 151 381 151 378 151 c 128,-1,166
 375 151 375 151 371 150 c 2,167,-1
 364 149 l 2,168,169
 366 152 366 152 360 153 c 1,170,-1
 354 167 l 1,171,172
 360 170 360 170 368 176 c 128,-1,173
 376 182 376 182 388.5 194.5 c 128,-1,174
 401 207 401 207 399 215 c 0,175,176
 394 222 394 222 384 215.5 c 128,-1,177
 374 209 374 209 356.5 202 c 128,-1,178
 339 195 339 195 330 201 c 0,179,180
 327 203 327 203 324 206 c 2,181,-1
 322 207 l 2,182,183
 327 201 327 201 317 205 c 2,184,-1
 302 211 l 2,185,186
 294 214 294 214 293 215 c 0,187,188
 288 219 288 219 275 227 c 2,189,-1
 263 235 l 1,190,-1
 264 235 l 2,191,192
 268 234 268 234 269 236 c 0,193,194
 269 238 269 238 267 241 c 0,195,196
 263 247 263 247 263.5 248.5 c 128,-1,197
 264 250 264 250 263 264 c 0,198,199
 262 275 262 275 251 275 c 0,200,201
 249 275 249 275 261 288 c 2,202,-1
 267 294 l 2,203,204
 264 291 264 291 263 292 c 2,205,-1
 264 294 l 2,206,207
 267 302 267 302 270 306 c 0,208,209
 271 308 271 308 273 314 c 2,210,-1
 277 322 l 2,211,212
 280 326 280 326 281 326 c 2,213,-1
 309 301 l 1,214,215
 333 319 333 319 337 325 c 0,216,217
 339 327 339 327 328.5 333.5 c 128,-1,218
 318 340 318 340 309.5 347.5 c 128,-1,219
 301 355 301 355 307 359 c 0,220,221
 313 364 313 364 318.5 366 c 128,-1,222
 324 368 324 368 328 368 c 2,223,-1
 331 368 l 1,224,-1
 347 368 l 1,225,-1
 364 368 l 1,226,-1
 368 374 l 1,227,-1
 380 373 l 1,228,-1
 394 369 l 1,229,-1
 404 368 l 1,230,-1
 410 368 l 1,231,-1
 406 360 l 1,132,-1
EndSplineSet
EndChar

StartChar: share-uniform
Encoding: 67 67 9
Width: 512
GlyphClass: 2
Flags: W
LayerCount: 2
Fore
SplineSet
489 426 m 0,0,1
 489 394 489 394 466 371 c 128,-1,2
 443 348 443 348 411 348 c 128,-1,3
 379 348 379 348 356 371 c 128,-1,4
 333 394 333 394 333 426 c 0,5,6
 333 459 333 459 356 482 c 128,-1,7
 379 505 379 505 411 505 c 128,-1,8
 443 505 443 505 466 482 c 128,-1,9
 489 459 489 459 489 426 c 0,0,1
179 279 m 128,-1,11
 179 247 179 247 156 224 c 128,-1,12
 133 201 133 201 101 201 c 128,-1,13
 69 201 69 201 46 224 c 128,-1,14
 23 247 23 247 23 279 c 128,-1,15
 23 311 23 311 46 334 c 128,-1,16
 69 357 69 357 101 357 c 128,-1,17
 133 357 133 357 156 334 c 128,-1,10
 179 311 179 311 179 279 c 128,-1,11
470 86 m 0,18,19
 470 53 470 53 447 30 c 128,-1,20
 424 7 424 7 392 7 c 0,21,22
 359 7 359 7 336 30 c 128,-1,23
 313 53 313 53 313 86 c 0,24,25
 313 118 313 118 336 141 c 128,-1,26
 359 164 359 164 392 164 c 0,27,28
 424 164 424 164 447 141 c 128,-1,29
 470 118 470 118 470 86 c 0,18,19
185 309 m 2,30,-1
 183 312 l 2,31,32
 181 318 181 318 186 321 c 2,33,-1
 317 392 l 2,34,35
 324 394 324 394 327 389 c 2,36,-1
 328 386 l 2,37,38
 332 381 332 381 326 377 c 2,39,-1
 194 306 l 2,40,41
 188 302 188 302 185 309 c 2,30,-1
183 231 m 2,42,-1
 185 234 l 2,43,44
 188 240 188 240 195 236 c 2,45,-1
 315 151 l 2,46,47
 320 148 320 148 316 142 c 2,48,-1
 314 139 l 2,49,50
 310 133 310 133 305 137 c 2,51,-1
 185 222 l 2,52,53
 179 226 179 226 183 231 c 2,42,-1
EndSplineSet
EndChar

StartChar: skip-chubby
Encoding: 68 68 10
Width: 512
GlyphClass: 2
Flags: W
LayerCount: 2
Fore
SplineSet
385 269 m 2,0,-1
 46 465 l 2,1,2
 38 469 38 469 30.5 464.5 c 128,-1,3
 23 460 23 460 23 452 c 2,4,-1
 23 60 l 2,5,6
 23 51 23 51 30.5 46.5 c 128,-1,7
 38 42 38 42 46 47 c 2,8,-1
 385 242 l 2,9,10
 392 247 392 247 392 255.5 c 128,-1,11
 392 264 392 264 385 269 c 2,0,-1
471 54 m 2,12,-1
 451 54 l 2,13,14
 435 54 435 54 435 70 c 2,15,-1
 435 442 l 2,16,17
 435 458 435 458 451 458 c 2,18,-1
 471 458 l 2,19,20
 477 458 477 458 481.5 453.5 c 128,-1,21
 486 449 486 449 486 442 c 2,22,-1
 486 70 l 2,23,24
 486 63 486 63 481.5 58.5 c 128,-1,25
 477 54 477 54 471 54 c 2,12,-1
EndSplineSet
EndChar

StartChar: skip-modern
Encoding: 69 69 11
Width: 512
GlyphClass: 2
Flags: W
LayerCount: 2
Fore
SplineSet
483 62 m 0,0,1
 478 62 478 62 478 68 c 2,2,-1
 478 445 l 2,3,4
 478 451 478 451 483 451 c 0,5,6
 489 451 489 451 489 445 c 2,7,-1
 489 68 l 2,8,9
 489 62 489 62 483 62 c 0,0,1
33 36 m 1,10,-1
 28 38 l 2,11,12
 23 40 23 40 23 46 c 2,13,-1
 23 472 l 1,14,-1
 27 475 l 2,15,16
 30 477 30 477 34 475 c 2,17,-1
 413 257 l 1,18,-1
 36 39 l 1,19,-1
 33 36 l 1,10,-1
36 458 m 1,20,-1
 36 55 l 1,21,-1
 386 257 l 1,22,-1
 36 458 l 1,20,-1
EndSplineSet
EndChar

StartChar: share-bubble
Encoding: 70 70 12
Width: 512
GlyphClass: 2
Flags: W
LayerCount: 2
Fore
SplineSet
481 287 m 0,0,1
 480 234 480 234 439 193 c 0,2,3
 433 185 433 185 435 178 c 0,4,5
 447 106 447 106 454 71 c 0,6,7
 455 69 455 69 455 66 c 0,8,9
 457 62 457 62 454 61 c 0,10,11
 452 60 452 60 449 62 c 0,12,13
 444 66 444 66 433.5 73 c 128,-1,14
 423 80 423 80 418 83 c 0,15,16
 406 91 406 91 344 132 c 0,17,18
 338 135 338 135 333 134 c 0,19,20
 215 104 215 104 116 159 c 0,21,22
 61 191 61 191 41 239 c 0,23,24
 11 314 11 314 69 377 c 0,25,26
 110 423 110 423 181 441 c 0,27,28
 289 467 289 467 385 421 c 0,29,30
 444 391 444 391 467 343 c 0,31,32
 481 318 481 318 481 287 c 0,0,1
122 323 m 128,-1,34
 108 323 108 323 98.5 313.5 c 128,-1,35
 89 304 89 304 89 290 c 128,-1,36
 89 276 89 276 98.5 266.5 c 128,-1,37
 108 257 108 257 122 257 c 128,-1,38
 136 257 136 257 146 266.5 c 128,-1,39
 156 276 156 276 156 290 c 128,-1,40
 156 304 156 304 146 313.5 c 128,-1,33
 136 323 136 323 122 323 c 128,-1,34
256 323 m 128,-1,42
 242 323 242 323 232.5 313.5 c 128,-1,43
 223 304 223 304 223 290 c 128,-1,44
 223 276 223 276 232.5 266.5 c 128,-1,45
 242 257 242 257 256 257 c 128,-1,46
 270 257 270 257 279.5 266.5 c 128,-1,47
 289 276 289 276 289 290 c 128,-1,48
 289 304 289 304 279.5 313.5 c 128,-1,41
 270 323 270 323 256 323 c 128,-1,42
390 323 m 128,-1,50
 376 323 376 323 366 313.5 c 128,-1,51
 356 304 356 304 356 290 c 128,-1,52
 356 276 356 276 366 266.5 c 128,-1,53
 376 257 376 257 390 257 c 128,-1,54
 404 257 404 257 413.5 266.5 c 128,-1,55
 423 276 423 276 423 290 c 128,-1,56
 423 304 423 304 413.5 313.5 c 128,-1,49
 404 323 404 323 390 323 c 128,-1,50
EndSplineSet
EndChar

StartChar: skip-slick
Encoding: 71 71 13
Width: 512
GlyphClass: 2
Flags: W
LayerCount: 2
Fore
SplineSet
391 255 m 2,0,-1
 72 71 l 2,1,2
 70 71 70 71 70 72 c 2,3,-1
 70 440 l 2,4,5
 71 441 71 441 72 441 c 2,6,-1
 259 333 l 1,7,-1
 391 257 l 2,8,9
 392 257 392 257 392 256 c 128,-1,10
 392 255 392 255 391 255 c 2,0,-1
436 72 m 0,11,12
 431 72 431 72 431 77 c 2,13,-1
 431 436 l 2,14,15
 431 441 431 441 436 441 c 128,-1,16
 441 441 441 441 441 436 c 2,17,-1
 441 77 l 2,18,19
 443 72 443 72 436 72 c 0,11,12
EndSplineSet
EndChar

StartChar: system-20skip
Encoding: 72 72 14
Width: 512
GlyphClass: 2
Flags: W
LayerCount: 2
Fore
SplineSet
150 52 m 2,0,1
 160 70 160 70 147 87 c 0,2,3
 108 141 108 141 113.5 208 c 128,-1,4
 119 275 119 275 167 322 c 0,5,6
 216 369 216 369 288 374 c 1,7,-1
 288 303 l 1,8,9
 353 341 353 341 441 392 c 1,10,11
 415 407 415 407 363.5 436.5 c 128,-1,12
 312 466 312 466 286 481 c 1,13,-1
 286 417 l 2,14,15
 284 416 284 416 282 416 c 2,16,-1
 276 416 l 1,17,18
 194 408 194 408 138 352 c 0,19,20
 57 271 57 271 74 157 c 0,21,22
 85 83 85 83 139 32 c 1,23,-1
 150 52 l 2,0,1
310 102 m 1,24,-1
 223 102 l 1,25,-1
 223 122 l 1,26,-1
 263 173 l 2,27,28
 266 177 266 177 270 183 c 0,29,30
 270 184 270 184 271.5 187.5 c 128,-1,31
 273 191 273 191 274 193 c 0,32,33
 275 194 275 194 276 197 c 2,34,-1
 277 200 l 2,35,36
 278 202 278 202 278 206 c 0,37,38
 278 214 278 214 274 222 c 0,39,40
 272 227 272 227 265 227 c 0,41,42
 260 227 260 227 258 226 c 0,43,44
 258 225 258 225 256 223.5 c 128,-1,45
 254 222 254 222 253 221 c 0,46,47
 252 219 252 219 250 213 c 0,48,49
 250 212 250 212 249.5 208 c 128,-1,50
 249 204 249 204 249 203 c 2,51,-1
 221 203 l 1,52,53
 221 213 221 213 224 222 c 0,54,55
 226 228 226 228 232 238 c 0,56,57
 240 244 240 244 246 248 c 0,58,59
 256 252 256 252 265 252 c 128,-1,60
 274 252 274 252 282 249 c 0,61,62
 287 247 287 247 295 241 c 0,63,64
 301 233 301 233 303 227 c 0,65,66
 305 217 305 217 305 210 c 0,67,68
 305 200 305 200 304 196 c 0,69,70
 299 183 299 183 298 182 c 0,71,72
 291 171 291 171 289 168 c 0,73,74
 283 158 283 158 279 153 c 2,75,-1
 260 125 l 1,76,-1
 309 125 l 1,77,-1
 310 102 l 1,24,-1
412 162 m 2,78,79
 412 146 412 146 409 134 c 0,80,81
 406 123 406 123 400 115 c 0,82,83
 392 105 392 105 387 103 c 0,84,85
 380 100 380 100 370 100 c 128,-1,86
 360 100 360 100 353 103 c 0,87,88
 346 107 346 107 340 115 c 128,-1,89
 334 123 334 123 331 134 c 0,90,91
 328 146 328 146 328 162 c 2,92,-1
 328 188 l 2,93,94
 328 204 328 204 331 216 c 0,95,96
 333 224 333 224 339 236 c 1,97,98
 348 245 348 245 353 247 c 0,99,100
 360 250 360 250 370 250 c 0,101,102
 378 250 378 250 387 247 c 0,103,104
 395 242 395 242 400 236 c 0,105,106
 406 226 406 226 409 216 c 0,107,108
 412 204 412 204 412 188 c 2,109,-1
 412 162 l 2,78,79
384 193 m 2,110,111
 384 196 384 196 383.5 201.5 c 128,-1,112
 383 207 383 207 383 209 c 0,113,114
 381 217 381 217 380 220 c 0,115,116
 378 222 378 222 376 226 c 0,117,118
 374 227 374 227 370 227 c 128,-1,119
 366 227 366 227 364 226 c 0,120,121
 361 225 361 225 359 220 c 0,122,123
 358 217 358 217 356 209 c 0,124,125
 355 205 355 205 355 193 c 2,126,-1
 355 159 l 2,127,128
 355 155 355 155 355.5 149.5 c 128,-1,129
 356 144 356 144 356 142 c 0,130,131
 358 134 358 134 359 132 c 0,132,133
 363 126 363 126 364 125 c 128,-1,134
 365 124 365 124 370 124 c 0,135,136
 374 124 374 124 376 125 c 0,137,138
 376 126 376 126 377.5 128 c 128,-1,139
 379 130 379 130 380 132 c 0,140,141
 382 136 382 136 382 142 c 0,142,143
 383 146 383 146 383 159 c 2,144,-1
 384 193 l 2,110,111
EndSplineSet
EndChar

StartChar: bitrate-mm-ooyala-large
Encoding: 73 73 15
Width: 512
GlyphClass: 2
Flags: W
LayerCount: 2
Fore
SplineSet
317 418 m 2,0,-1
 317 279 l 2,1,2
 317 268 317 268 306 268 c 2,3,-1
 166 268 l 2,4,5
 156 268 156 268 156 279 c 2,6,-1
 156 418 l 2,7,8
 156 429 156 429 166 429 c 2,9,-1
 306 429 l 2,10,11
 317 429 317 429 317 418 c 2,0,-1
140 206 m 2,12,-1
 140 97 l 2,13,14
 140 89 140 89 132 89 c 2,15,-1
 23 89 l 2,16,17
 15 89 15 89 15 97 c 2,18,-1
 15 206 l 2,19,20
 15 215 15 215 23 215 c 2,21,-1
 132 215 l 2,22,23
 140 215 140 215 140 206 c 2,12,-1
103 388 m 2,24,-1
 103 309 l 2,25,26
 103 303 103 303 97 303 c 2,27,-1
 18 303 l 2,28,29
 12 303 12 303 12 309 c 2,30,-1
 12 388 l 2,31,32
 12 394 12 394 18 394 c 2,33,-1
 97 394 l 2,34,35
 103 394 103 394 103 388 c 2,24,-1
416 289 m 2,36,-1
 388 289 l 2,37,38
 383 289 383 289 383 294 c 2,39,-1
 383 322 l 2,40,41
 383 327 383 327 388 327 c 2,42,-1
 416 327 l 2,43,44
 421 327 421 327 421 322 c 2,45,-1
 421 294 l 2,46,47
 421 289 421 289 416 289 c 2,36,-1
489 83 m 2,48,-1
 425 83 l 2,49,50
 415 83 415 83 415 94 c 2,51,-1
 415 158 l 2,52,53
 415 168 415 168 425 168 c 2,54,-1
 489 168 l 2,55,56
 500 168 500 168 500 158 c 2,57,-1
 500 94 l 2,58,59
 500 83 500 83 489 83 c 2,48,-1
381 196 m 2,60,-1
 345 196 l 2,61,62
 339 196 339 196 339 202 c 2,63,-1
 339 238 l 2,64,65
 339 244 339 244 345 244 c 2,66,-1
 381 244 l 2,67,68
 388 244 388 244 388 238 c 2,69,-1
 388 202 l 2,70,71
 386 196 386 196 381 196 c 2,60,-1
269 165 m 2,72,-1
 241 165 l 2,73,74
 236 165 236 165 236 169 c 2,75,-1
 236 198 l 2,76,77
 236 202 236 202 241 202 c 2,78,-1
 269 202 l 2,79,80
 273 202 273 202 273 198 c 2,81,-1
 273 169 l 2,82,83
 273 165 273 165 269 165 c 2,72,-1
EndSplineSet
EndChar

StartChar: discovery-graph
Encoding: 74 74 16
Width: 512
GlyphClass: 2
Flags: W
LayerCount: 2
Fore
SplineSet
210 326 m 0,0,1
 210 317 210 317 208 314 c 0,2,3
 206 310 206 310 211 303 c 0,4,5
 223 291 223 291 247 266.5 c 128,-1,6
 271 242 271 242 283 230 c 0,7,8
 285 228 285 228 289 229 c 0,9,10
 312 241 312 241 332 228 c 0,11,12
 335 225 335 225 339 229 c 0,13,14
 354 249 354 249 382.5 290 c 128,-1,15
 411 331 411 331 425 352 c 0,16,17
 428 356 428 356 425 359 c 0,18,19
 406 385 406 385 425 411 c 0,20,21
 447 436 447 436 475 423 c 0,22,23
 503 411 503 411 500 379 c 0,24,25
 495 348 495 348 464 343 c 0,26,27
 453 343 453 343 451 344 c 0,28,29
 445 345 445 345 441 340 c 2,30,-1
 351 211 l 2,31,32
 349 207 349 207 350 203 c 0,33,34
 355 183 355 183 342 166.5 c 128,-1,35
 329 150 329 150 309 150 c 0,36,37
 287 150 287 150 274.5 167.5 c 128,-1,38
 262 185 262 185 269 206 c 0,39,40
 272 212 272 212 267 217 c 0,41,42
 243 240 243 240 197 288 c 0,43,44
 194 291 194 291 188 289 c 0,45,46
 174 280 174 280 155 285 c 0,47,48
 151 287 151 287 147 282 c 0,49,50
 137 262 137 262 116.5 222 c 128,-1,51
 96 182 96 182 86 162 c 0,52,53
 83 157 83 157 87 153 c 0,54,55
 108 129 108 129 92 101 c 0,56,57
 84 90 84 90 71 84.5 c 128,-1,58
 58 79 58 79 45 83 c 0,59,60
 14 93 14 93 14 124 c 0,61,62
 14 156 14 156 45 164 c 0,63,64
 50 166 50 166 60 166 c 0,65,66
 64 164 64 164 66 169 c 0,67,68
 77 190 77 190 99 232.5 c 128,-1,69
 121 275 121 275 132 296 c 0,70,71
 134 301 134 301 131 304 c 0,72,73
 119 329 119 329 134 350 c 128,-1,74
 149 371 149 371 175 366 c 0,75,76
 202 362 202 362 208 334 c 0,77,78
 210 330 210 330 210 326 c 0,0,1
136 326 m 128,-1,80
 136 313 136 313 145.5 303.5 c 128,-1,81
 155 294 155 294 167 294 c 0,82,83
 180 294 180 294 189.5 303 c 128,-1,84
 199 312 199 312 199 325 c 0,85,86
 200 338 200 338 190.5 347.5 c 128,-1,87
 181 357 181 357 168 357 c 128,-1,88
 155 357 155 357 145.5 348 c 128,-1,79
 136 339 136 339 136 326 c 128,-1,80
459 417 m 0,89,90
 446 417 446 417 436.5 408 c 128,-1,91
 427 399 427 399 427 386 c 128,-1,92
 427 373 427 373 436 363.5 c 128,-1,93
 445 354 445 354 458 354 c 128,-1,94
 471 354 471 354 480.5 363 c 128,-1,95
 490 372 490 372 490 385 c 128,-1,96
 490 398 490 398 481 407 c 128,-1,97
 472 416 472 416 459 417 c 0,89,90
341 193 m 0,98,99
 341 205 341 205 331.5 214.5 c 128,-1,100
 322 224 322 224 309 224 c 128,-1,101
 296 224 296 224 286.5 214.5 c 128,-1,102
 277 205 277 205 278 192 c 0,103,104
 278 179 278 179 287.5 170 c 128,-1,105
 297 161 297 161 310 161 c 128,-1,106
 323 161 323 161 332 170.5 c 128,-1,107
 341 180 341 180 341 193 c 0,98,99
88 124 m 128,-1,109
 88 137 88 137 79 146.5 c 128,-1,110
 70 156 70 156 57 156 c 128,-1,111
 44 156 44 156 34.5 147 c 128,-1,112
 25 138 25 138 25 125 c 128,-1,113
 25 112 25 112 34 102.5 c 128,-1,114
 43 93 43 93 56 93 c 128,-1,115
 69 93 69 93 78.5 102 c 128,-1,108
 88 111 88 111 88 124 c 128,-1,109
EndSplineSet
EndChar

StartChar: fast-forward-slick
Encoding: 75 75 17
Width: 512
GlyphClass: 2
Flags: W
LayerCount: 2
Fore
SplineSet
330 255 m 2,0,-1
 11 71 l 2,1,2
 10 71 10 71 10 72 c 2,3,-1
 10 440 l 2,4,5
 10 441 10 441 11 441 c 2,6,-1
 198 333 l 1,7,-1
 330 257 l 2,8,9
 331 257 331 257 331 256 c 128,-1,10
 331 255 331 255 330 255 c 2,0,-1
502 255 m 2,11,-1
 183 71 l 2,12,13
 181 71 181 71 181 72 c 2,14,-1
 181 147 l 2,15,16
 181 150 181 150 183 150 c 2,17,-1
 358 254 l 2,18,19
 360 255 360 255 360 256.5 c 128,-1,20
 360 258 360 258 358 259 c 2,21,-1
 183 363 l 2,22,23
 181 365 181 365 181 366 c 2,24,-1
 181 440 l 2,25,26
 182 441 182 441 183 441 c 2,27,-1
 502 257 l 2,28,29
 503 257 503 257 503 256 c 128,-1,30
 503 255 503 255 502 255 c 2,11,-1
EndSplineSet
EndChar

StartChar: system-logo-ooyala
Encoding: 76 76 18
Width: 512
GlyphClass: 2
Flags: W
LayerCount: 2
Fore
SplineSet
104 255 m 0,0,1
 104 273 104 273 115.5 284 c 128,-1,2
 127 295 127 295 144 295 c 128,-1,3
 161 295 161 295 172.5 284 c 128,-1,4
 184 273 184 273 184 255 c 0,5,6
 184 238 184 238 172.5 227 c 128,-1,7
 161 216 161 216 144 216 c 128,-1,8
 127 216 127 216 115.5 227 c 128,-1,9
 104 238 104 238 104 255 c 0,0,1
172 255 m 0,10,11
 172 268 172 268 164 276 c 128,-1,12
 156 284 156 284 144 284 c 128,-1,13
 132 284 132 284 124 276 c 128,-1,14
 116 268 116 268 116 255 c 0,15,16
 116 243 116 243 123.5 235 c 128,-1,17
 131 227 131 227 144 227 c 0,18,19
 156 227 156 227 164 235 c 128,-1,20
 172 243 172 243 172 255 c 0,10,11
191 255 m 0,21,22
 191 273 191 273 202.5 284 c 128,-1,23
 214 295 214 295 231 295 c 128,-1,24
 248 295 248 295 259.5 284 c 128,-1,25
 271 273 271 273 271 255 c 0,26,27
 271 238 271 238 259.5 227 c 128,-1,28
 248 216 248 216 231 216 c 128,-1,29
 214 216 214 216 202.5 227 c 128,-1,30
 191 238 191 238 191 255 c 0,21,22
259 255 m 0,31,32
 259 268 259 268 251 276 c 128,-1,33
 243 284 243 284 231 284 c 128,-1,34
 219 284 219 284 211 276 c 128,-1,35
 203 268 203 268 203 255 c 0,36,37
 203 243 203 243 211 235 c 128,-1,38
 219 227 219 227 231 227 c 128,-1,39
 243 227 243 227 251 235 c 128,-1,40
 259 243 259 243 259 255 c 0,31,32
265 295 m 1,41,-1
 279 295 l 1,42,-1
 301 254 l 1,43,-1
 322 295 l 1,44,-1
 335 295 l 1,45,-1
 308 242 l 1,46,-1
 308 218 l 1,47,-1
 294 218 l 1,48,-1
 294 241 l 1,49,-1
 265 295 l 1,41,-1
327 218 m 1,50,-1
 314 218 l 1,51,-1
 348 295 l 1,52,-1
 349 295 l 1,53,-1
 383 218 l 1,54,-1
 370 218 l 1,55,-1
 366 227 l 1,56,-1
 331 227 l 1,57,-1
 327 218 l 1,50,-1
349 271 m 1,58,-1
 336 240 l 1,59,-1
 361 240 l 1,60,-1
 349 271 l 1,58,-1
390 295 m 1,61,-1
 403 295 l 1,62,-1
 403 227 l 1,63,-1
 436 227 l 1,64,-1
 432 218 l 1,65,-1
 390 218 l 1,66,-1
 390 295 l 1,61,-1
453 218 m 1,67,-1
 441 218 l 1,68,-1
 475 295 l 1,69,-1
 509 218 l 1,70,-1
 497 218 l 1,71,-1
 492 227 l 1,72,-1
 457 227 l 1,73,-1
 453 218 l 1,67,-1
475 271 m 1,74,-1
 462 240 l 1,75,-1
 487 240 l 1,76,-1
 475 271 l 1,74,-1
505 284 m 0,77,78
 504 282 504 282 500 282 c 0,79,80
 497 282 497 282 495 284 c 128,-1,81
 493 286 493 286 493 289 c 0,82,83
 493 290 493 290 495 294 c 0,84,85
 499 296 499 296 500 296 c 0,86,87
 503 296 503 296 505 294 c 128,-1,88
 507 292 507 292 507 289 c 0,89,90
 509 286 509 286 505 284 c 0,77,78
496 293 m 0,91,92
 494 291 494 291 494 289 c 0,93,94
 494 286 494 286 496 284 c 128,-1,95
 498 282 498 282 500 282 c 0,96,97
 501 282 501 282 505 284 c 0,98,99
 507 286 507 286 507 289 c 0,100,101
 507 291 507 291 505 293 c 128,-1,102
 503 295 503 295 500 295 c 128,-1,103
 497 295 497 295 496 293 c 0,91,92
500 293 m 2,104,105
 502 293 502 293 502 292 c 1,106,107
 503 292 503 292 503 290 c 0,108,109
 503 289 503 289 502 289 c 1,110,111
 502 288 502 288 501 288 c 1,112,113
 502 288 502 288 503 287 c 2,114,-1
 503 286 l 1,115,-1
 503 285 l 1,116,-1
 502 285 l 1,117,-1
 502 286 l 2,118,119
 502 287 502 287 501 288 c 2,120,-1
 500 288 l 1,121,-1
 499 288 l 1,122,-1
 499 285 l 1,123,-1
 497 285 l 1,124,-1
 497 293 l 1,125,-1
 500 293 l 2,104,105
502 292 m 1,126,-1
 500 292 l 1,127,-1
 499 292 l 1,128,-1
 499 289 l 1,129,-1
 501 289 l 1,130,-1
 502 289 l 1,131,-1
 503 290 l 1,132,-1
 502 292 l 1,126,-1
56 283 m 0,133,134
 56 270 56 270 43 270 c 128,-1,135
 30 270 30 270 30 283 c 0,136,137
 30 295 30 295 43 295 c 0,138,139
 48 295 48 295 52 291.5 c 128,-1,140
 56 288 56 288 56 283 c 0,133,134
28 263 m 0,141,142
 28 250 28 250 15 250 c 0,143,144
 3 250 3 250 3 263 c 0,145,146
 3 275 3 275 15 275 c 0,147,148
 28 275 28 275 28 263 c 0,141,142
38 230 m 0,149,150
 38 217 38 217 26 217 c 0,151,152
 13 217 13 217 13 230 c 128,-1,153
 13 243 13 243 26 243 c 0,154,155
 38 241 38 241 38 230 c 0,149,150
73 230 m 0,156,157
 73 217 73 217 60 217 c 0,158,159
 48 217 48 217 48 230 c 128,-1,160
 48 243 48 243 60 243 c 0,161,162
 73 241 73 241 73 230 c 0,156,157
83 263 m 0,163,164
 83 250 83 250 71 250 c 0,165,166
 58 250 58 250 58 263 c 0,167,168
 58 275 58 275 71 275 c 0,169,170
 83 275 83 275 83 263 c 0,163,164
EndSplineSet
EndChar

StartChar: bitrate-video-quailty
Encoding: 77 77 19
Width: 512
GlyphClass: 2
Flags: W
LayerCount: 2
Fore
SplineSet
138 214 m 1,0,-1
 188 429 l 1,1,-1
 255 429 l 1,2,-1
 169 132 l 1,3,-1
 106 132 l 1,4,-1
 22 429 l 1,5,-1
 88 429 l 1,6,-1
 138 214 l 1,0,-1
489 258 m 2,7,8
 489 217 489 217 479 193 c 0,9,10
 469 167 469 167 450 151 c 1,11,-1
 491 114 l 1,12,-1
 453 79 l 1,13,-1
 398 129 l 1,14,-1
 391 129 l 2,15,16
 390 129 390 129 387 128.5 c 128,-1,17
 384 128 384 128 382 128 c 0,18,19
 360 128 360 128 339 136 c 0,20,21
 317 146 317 146 305 161 c 0,22,23
 290 180 290 180 283 201 c 0,24,25
 275 228 275 228 275 258 c 2,26,-1
 275 303 l 2,27,28
 275 335 275 335 283 359 c 0,29,30
 291 385 291 385 305 400 c 0,31,32
 317 415 317 415 339 425 c 0,33,34
 356 433 356 433 382 433 c 0,35,36
 409 433 409 433 426 425 c 0,37,38
 448 415 448 415 460 400 c 0,39,40
 475 384 475 384 482 359 c 0,41,42
 489 337 489 337 489 303 c 2,43,-1
 489 258 l 2,7,8
429 304 m 2,44,45
 429 325 429 325 426 340 c 0,46,47
 423 354 423 354 417 365 c 0,48,49
 410 375 410 375 402 379 c 128,-1,50
 394 383 394 383 382 383 c 128,-1,51
 370 383 370 383 361 379 c 0,52,53
 354 376 354 376 347 365 c 0,54,55
 339 352 339 352 337 340 c 0,56,57
 334 325 334 325 334 304 c 2,58,-1
 334 258 l 2,59,60
 334 236 334 236 337 221 c 0,61,62
 340 208 340 208 347 197 c 0,63,64
 353 187 353 187 361 182 c 0,65,66
 370 178 370 178 382 178 c 128,-1,67
 394 178 394 178 402 182 c 0,68,69
 411 186 411 186 417 197 c 0,70,71
 423 206 423 206 426 221 c 128,-1,72
 429 236 429 236 429 258 c 2,73,-1
 429 304 l 2,44,45
EndSplineSet
EndChar

StartChar: discovery-compas
Encoding: 78 78 20
Width: 512
GlyphClass: 2
Flags: W
LayerCount: 2
Fore
SplineSet
381 270 m 0,0,1
 369 272 369 272 367 258 c 0,2,3
 367 244 367 244 380 244 c 0,4,5
 385 243 385 243 389.5 247 c 128,-1,6
 394 251 394 251 394 256 c 0,7,8
 394 270 394 270 381 270 c 0,0,1
130 268 m 128,-1,10
 118 268 118 268 118 257 c 128,-1,11
 118 246 118 246 129 244 c 0,12,13
 140 244 140 244 142 255 c 0,14,9
 142 268 142 268 130 268 c 128,-1,10
417 385 m 128,-1,16
 470 318 470 318 461 233 c 128,-1,17
 452 148 452 148 385 96 c 0,18,19
 318 43 318 43 233 52.5 c 128,-1,20
 148 62 148 62 95 129 c 128,-1,21
 42 196 42 196 51.5 280.5 c 128,-1,22
 61 365 61 365 128 418 c 128,-1,23
 195 471 195 471 279.5 461.5 c 128,-1,15
 364 452 364 452 417 385 c 128,-1,16
155 384 m 128,-1,25
 102 342 102 342 94.5 275 c 128,-1,26
 87 208 87 208 129 156 c 0,27,28
 170 103 170 103 237 95.5 c 128,-1,29
 304 88 304 88 357 130 c 0,30,31
 410 171 410 171 417.5 238 c 128,-1,32
 425 305 425 305 383 358 c 128,-1,33
 341 411 341 411 274.5 418.5 c 128,-1,24
 208 426 208 426 155 384 c 128,-1,25
52 383 m 2,34,-1
 134 454 l 2,35,36
 136 456 136 456 135 459.5 c 128,-1,37
 134 463 134 463 130 464 c 2,38,-1
 30 497 l 2,39,40
 27 498 27 498 25 496.5 c 128,-1,41
 23 495 23 495 24 492 c 2,42,-1
 44 388 l 2,43,44
 44 384 44 384 47 382.5 c 128,-1,45
 50 381 50 381 52 383 c 2,34,-1
461 129 m 2,46,-1
 379 59 l 2,47,48
 377 57 377 57 378 53.5 c 128,-1,49
 379 50 379 50 382 49 c 2,50,-1
 482 15 l 2,51,52
 485 14 485 14 487 15.5 c 128,-1,53
 489 17 489 17 488 20 c 2,54,-1
 470 124 l 2,55,56
 470 128 470 128 466.5 129.5 c 128,-1,57
 463 131 463 131 461 129 c 2,46,-1
278 281 m 1,58,-1
 192 258 l 1,59,-1
 255 194 l 1,60,-1
 278 281 l 1,58,-1
260 317 m 1,61,-1
 265 323 l 1,62,-1
 320 267 l 1,63,-1
 315 262 l 1,64,-1
 260 317 l 1,61,-1
EndSplineSet
EndChar

StartChar: pause-modern
Encoding: 79 79 21
Width: 512
GlyphClass: 2
Flags: W
LayerCount: 2
Fore
SplineSet
197 43 m 1,0,-1
 89 43 l 1,1,-1
 89 469 l 1,2,-1
 197 469 l 1,3,-1
 197 43 l 1,0,-1
104 58 m 1,4,-1
 182 58 l 1,5,-1
 182 454 l 1,6,-1
 104 454 l 1,7,-1
 104 58 l 1,4,-1
423 43 m 1,8,-1
 315 43 l 1,9,-1
 315 469 l 1,10,-1
 423 469 l 1,11,-1
 423 43 l 1,8,-1
330 58 m 1,12,-1
 408 58 l 1,13,-1
 408 454 l 1,14,-1
 330 454 l 1,15,-1
 330 58 l 1,12,-1
EndSplineSet
EndChar

StartChar: bitrate-list
Encoding: 80 80 22
Width: 512
GlyphClass: 2
Flags: W
LayerCount: 2
Fore
SplineSet
448 393 m 2,0,-1
 36 393 l 2,1,2
 28 393 28 393 23 398.5 c 128,-1,3
 18 404 18 404 18 411 c 128,-1,4
 18 418 18 418 23 423.5 c 128,-1,5
 28 429 28 429 36 429 c 2,6,-1
 448 429 l 2,7,8
 456 429 456 429 461 423.5 c 128,-1,9
 466 418 466 418 466 411 c 128,-1,10
 466 404 466 404 461 398.5 c 128,-1,11
 456 393 456 393 448 393 c 2,0,-1
323 255 m 2,12,-1
 36 255 l 2,13,14
 28 255 28 255 23 260.5 c 128,-1,15
 18 266 18 266 18 273 c 128,-1,16
 18 280 18 280 23 285.5 c 128,-1,17
 28 291 28 291 36 291 c 2,18,-1
 323 291 l 2,19,20
 330 291 330 291 335 285.5 c 128,-1,21
 340 280 340 280 340 273 c 128,-1,22
 340 266 340 266 335 260.5 c 128,-1,23
 330 255 330 255 323 255 c 2,12,-1
217 117 m 2,24,-1
 36 117 l 2,25,26
 28 117 28 117 23 122.5 c 128,-1,27
 18 128 18 128 18 135 c 128,-1,28
 18 142 18 142 23.5 147.5 c 128,-1,29
 29 153 29 153 36 153 c 2,30,-1
 217 153 l 2,31,32
 224 153 224 153 229 147.5 c 128,-1,33
 234 142 234 142 234 135 c 0,34,35
 234 117 234 117 217 117 c 2,24,-1
EndSplineSet
EndChar

StartChar: pause-chubby
Encoding: 81 81 23
Width: 512
GlyphClass: 2
Flags: W
LayerCount: 2
Fore
SplineSet
179 20 m 2,0,-1
 87 20 l 2,1,2
 71 20 71 20 71 36 c 2,3,-1
 71 476 l 2,4,5
 71 492 71 492 87 492 c 2,6,-1
 179 492 l 2,7,8
 195 492 195 492 195 476 c 2,9,-1
 195 36 l 2,10,11
 195 30 195 30 190 25 c 128,-1,12
 185 20 185 20 179 20 c 2,0,-1
425 20 m 2,13,-1
 333 20 l 2,14,15
 317 20 317 20 317 36 c 2,16,-1
 317 476 l 2,17,18
 317 492 317 492 333 492 c 2,19,-1
 425 492 l 2,20,21
 441 492 441 492 441 476 c 2,22,-1
 441 36 l 2,23,24
 441 30 441 30 436.5 25 c 128,-1,25
 432 20 432 20 425 20 c 2,13,-1
EndSplineSet
EndChar

StartChar: R
Encoding: 82 82 24
Width: 518
GlyphClass: 2
Flags: W
LayerCount: 2
Fore
SplineSet
256 64 m 128,-1,1
 336 64 336 64 392 120 c 128,-1,2
 448 176 448 176 448 256 c 128,-1,3
 448 336 448 336 392 392 c 128,-1,4
 336 448 336 448 256 448 c 128,-1,5
 176 448 176 448 120 392 c 128,-1,6
 64 336 64 336 64 256 c 128,-1,7
 64 176 64 176 120 120 c 128,-1,0
 176 64 176 64 256 64 c 128,-1,1
261 421 m 2,8,-1
 306 376 l 2,9,10
 308 374 308 374 308 371 c 0,11,12
 308 365 308 365 301 365 c 2,13,-1
 211 365 l 2,14,15
 204 365 204 365 204 371 c 0,16,17
 204 374 204 374 206 376 c 2,18,-1
 251 421 l 2,19,20
 253 423 253 423 256 423 c 128,-1,21
 259 423 259 423 261 421 c 2,8,-1
421 251 m 2,22,-1
 376 206 l 2,23,24
 374 204 374 204 371 204 c 0,25,26
 365 204 365 204 365 211 c 2,27,-1
 365 301 l 2,28,29
 365 308 365 308 371 308 c 0,30,31
 374 308 374 308 376 306 c 2,32,-1
 421 261 l 2,33,34
 423 259 423 259 423 256 c 128,-1,35
 423 253 423 253 421 251 c 2,22,-1
91 251 m 2,36,37
 89 253 89 253 89 256 c 128,-1,38
 89 259 89 259 91 261 c 2,39,-1
 136 306 l 2,40,41
 138 308 138 308 141 308 c 0,42,43
 147 308 147 308 147 301 c 2,44,-1
 147 211 l 2,45,46
 147 204 147 204 141 204 c 0,47,48
 138 204 138 204 136 206 c 2,49,-1
 91 251 l 2,36,37
261 91 m 2,50,51
 259 89 259 89 256 89 c 128,-1,52
 253 89 253 89 251 91 c 2,53,-1
 206 136 l 2,54,55
 204 138 204 138 204 141 c 0,56,57
 204 147 204 147 211 147 c 2,58,-1
 301 147 l 2,59,60
 308 147 308 147 308 141 c 0,61,62
 308 138 308 138 306 136 c 2,63,-1
 261 91 l 2,50,51
256 224 m 128,-1,65
 243 224 243 224 233.5 233.5 c 128,-1,66
 224 243 224 243 224 256 c 128,-1,67
 224 269 224 269 233.5 278.5 c 128,-1,68
 243 288 243 288 256 288 c 128,-1,69
 269 288 269 288 278.5 278.5 c 128,-1,70
 288 269 288 269 288 256 c 128,-1,71
 288 243 288 243 278.5 233.5 c 128,-1,64
 269 224 269 224 256 224 c 128,-1,65
EndSplineSet
EndChar

StartChar: volume-mute-bars
Encoding: 83 83 25
Width: 512
GlyphClass: 2
Flags: W
LayerCount: 2
Fore
SplineSet
316 197 m 0,0,1
 314 198 314 198 312 200 c 0,2,3
 281 233 281 233 248 264 c 0,4,5
 245 269 245 269 240 264 c 0,6,7
 198 222 198 222 177 200 c 0,8,9
 173 196 173 196 169 200 c 2,10,-1
 164 205 l 2,11,12
 160 209 160 209 159 211 c 0,13,14
 159 214 159 214 169 222 c 0,15,16
 179 232 179 232 197.5 251.5 c 128,-1,17
 216 271 216 271 226 280 c 0,18,19
 230 283 230 283 226 287 c 2,20,-1
 162 351 l 2,21,22
 157 356 157 356 162 359 c 2,23,-1
 167 364 l 2,24,25
 171 368 171 368 173 369 c 0,26,27
 174 369 174 369 176 367 c 128,-1,28
 178 365 178 365 180 362.5 c 128,-1,29
 182 360 182 360 184 359 c 2,30,-1
 241 302 l 2,31,32
 245 297 245 297 249 302 c 2,33,-1
 313 366 l 2,34,35
 316 371 316 371 321 366 c 2,36,-1
 324 362 l 1,37,-1
 328 358 l 2,38,39
 330 357 330 357 330 355 c 128,-1,40
 330 353 330 353 328 352 c 2,41,-1
 324 348 l 1,42,-1
 321 344 l 1,43,44
 283 306 283 306 263 287 c 0,45,46
 260 284 260 284 263 280 c 0,47,48
 306 237 306 237 328 216 c 0,49,50
 332 211 332 211 328 207 c 0,51,52
 325 205 325 205 319 199 c 0,53,54
 317 197 317 197 316 197 c 0,0,1
160 66 m 2,55,-1
 160 114 l 2,56,57
 160 120 160 120 165 120 c 2,58,-1
 230 120 l 2,59,60
 236 120 236 120 236 115 c 2,61,-1
 236 17 l 2,62,63
 236 12 236 12 230 12 c 2,64,-1
 165 12 l 2,65,66
 159 12 159 12 159 17 c 0,67,68
 160 33 160 33 160 66 c 2,55,-1
355 66 m 1,69,-1
 355 17 l 2,70,71
 355 11 355 11 350 11 c 2,72,-1
 284 11 l 2,73,74
 279 11 279 11 279 16 c 2,75,-1
 279 115 l 2,76,77
 279 120 279 120 284 120 c 2,78,-1
 350 120 l 2,79,80
 355 120 355 120 355 114 c 2,81,-1
 355 66 l 1,69,-1
41 49 m 1,82,-1
 41 83 l 2,83,84
 41 88 41 88 46 88 c 2,85,-1
 113 88 l 2,86,87
 118 88 118 88 118 83 c 2,88,-1
 118 17 l 2,89,90
 118 12 118 12 113 12 c 2,91,-1
 46 12 l 2,92,93
 41 12 41 12 41 16 c 2,94,-1
 41 49 l 1,82,-1
435 12 m 2,95,-1
 403 12 l 2,96,97
 398 12 398 12 398 17 c 2,98,-1
 398 82 l 2,99,100
 398 88 398 88 403 88 c 2,101,-1
 468 88 l 2,102,103
 475 88 475 88 475 82 c 2,104,-1
 475 17 l 2,105,106
 475 11 475 11 468 11 c 0,107,108
 457 12 457 12 435 12 c 2,95,-1
EndSplineSet
EndChar

StartChar: fast-forward-chubby
Encoding: 84 84 26
Width: 512
GlyphClass: 2
Flags: W
LayerCount: 2
Fore
SplineSet
194 177 m 1,0,1
 156 155 156 155 138 145 c 2,2,-1
 30 82 l 2,3,4
 19 76 19 76 12 84 c 0,5,6
 9 88 9 88 9 93 c 2,7,-1
 9 419 l 2,8,9
 9 427 9 427 15.5 430.5 c 128,-1,10
 22 434 22 434 30 430 c 0,11,12
 93 393 93 393 163 353 c 0,13,14
 181 343 181 343 189 337 c 0,15,16
 194 334 194 334 194 340 c 0,17,18
 194 391 194 391 193 417 c 0,19,20
 193 426 193 426 199.5 430 c 128,-1,21
 206 434 206 434 215 430 c 0,22,23
 261 403 261 403 354 349.5 c 128,-1,24
 447 296 447 296 493 269 c 0,25,26
 502 264 502 264 502 256 c 128,-1,27
 502 248 502 248 493 243 c 0,28,29
 447 216 447 216 354.5 162.5 c 128,-1,30
 262 109 262 109 216 82 c 0,31,32
 208 77 208 77 201 81 c 128,-1,33
 194 85 194 85 194 95 c 2,34,-1
 194 177 l 1,0,1
EndSplineSet
EndChar

StartChar: volume-on-bard
Encoding: 85 85 27
Width: 512
GlyphClass: 2
Flags: W
LayerCount: 2
Fore
SplineSet
113 11 m 2,0,-1
 42 11 l 2,1,2
 40 11 40 11 40 14 c 2,3,-1
 40 366 l 2,4,5
 40 369 40 369 42 369 c 2,6,-1
 114 369 l 2,7,8
 116 369 116 369 116 366 c 2,9,-1
 116 13 l 2,10,11
 116 11 116 11 113 11 c 2,0,-1
232 11 m 2,12,-1
 161 11 l 2,13,14
 158 11 158 11 158 14 c 2,15,-1
 158 199 l 2,16,17
 158 202 158 202 161 202 c 2,18,-1
 232 202 l 2,19,20
 234 202 234 202 234 199 c 2,21,-1
 234 14 l 2,22,23
 234 11 234 11 232 11 c 2,12,-1
351 11 m 2,24,-1
 280 11 l 2,25,26
 278 11 278 11 278 14 c 2,27,-1
 278 498 l 2,28,29
 278 501 278 501 280 501 c 2,30,-1
 351 501 l 2,31,32
 354 501 354 501 354 498 c 2,33,-1
 354 13 l 2,34,35
 354 11 354 11 351 11 c 2,24,-1
470 11 m 2,36,-1
 399 11 l 2,37,38
 396 11 396 11 396 14 c 2,39,-1
 396 224 l 2,40,41
 396 227 396 227 399 227 c 2,42,-1
 470 227 l 2,43,44
 473 227 473 227 473 224 c 2,45,-1
 473 13 l 2,46,47
 471 11 471 11 470 11 c 2,36,-1
EndSplineSet
EndChar

StartChar: bitrate-bars
Encoding: 86 86 28
Width: 512
GlyphClass: 2
Flags: W
LayerCount: 2
Fore
SplineSet
37 129 m 1,0,-1
 128 129 l 1,1,-1
 128 8 l 1,2,-1
 37 8 l 1,3,-1
 37 129 l 1,0,-1
37 221 m 1,4,-1
 128 221 l 1,5,-1
 128 160 l 1,6,-1
 37 160 l 1,7,-1
 37 221 l 1,4,-1
210 253 m 1,8,-1
 302 253 l 1,9,-1
 302 99 l 1,10,-1
 210 99 l 1,11,-1
 210 253 l 1,8,-1
210 69 m 1,12,-1
 302 69 l 1,13,-1
 302 8 l 1,14,-1
 210 8 l 1,15,-1
 210 69 l 1,12,-1
210 344 m 1,16,-1
 302 344 l 1,17,-1
 302 283 l 1,18,-1
 210 283 l 1,19,-1
 210 344 l 1,16,-1
383 370 m 1,20,-1
 475 370 l 1,21,-1
 475 142 l 1,22,-1
 383 142 l 1,23,-1
 383 370 l 1,20,-1
383 98 m 1,24,-1
 475 98 l 1,25,-1
 475 8 l 1,26,-1
 383 8 l 1,27,-1
 383 98 l 1,24,-1
384 504 m 1,28,-1
 475 504 l 1,29,-1
 475 415 l 1,30,-1
 384 415 l 1,31,-1
 384 504 l 1,28,-1
EndSplineSet
EndChar

StartChar: W
Encoding: 87 87 29
Width: 524
GlyphClass: 2
Flags: W
LayerCount: 2
Fore
SplineSet
263.5 216 m 128,-1,1
 269 216 269 216 273.5 213 c 128,-1,2
 278 210 278 210 280 204 c 2,3,-1
 299 158 l 1,4,-1
 227 158 l 1,5,-1
 246 204 l 2,6,7
 248 210 248 210 253 213 c 128,-1,0
 258 216 258 216 263.5 216 c 128,-1,1
472 141 m 2,8,9
 472 132 472 132 466.5 127 c 128,-1,10
 461 122 461 122 453 122 c 2,11,-1
 354 122 l 2,12,13
 345 122 345 122 338 126.5 c 128,-1,14
 331 131 331 131 327 139 c 2,15,-1
 297 212 l 2,16,17
 292 223 292 223 282.5 229.5 c 128,-1,18
 273 236 273 236 262 236 c 128,-1,19
 251 236 251 236 241.5 229.5 c 128,-1,20
 232 223 232 223 227 212 c 2,21,-1
 197 139 l 2,22,23
 193 130 193 130 186 126 c 128,-1,24
 179 122 179 122 170 122 c 2,25,-1
 71 122 l 2,26,27
 62 122 62 122 57 127 c 128,-1,28
 52 132 52 132 52 141 c 2,29,-1
 52 351 l 2,30,31
 52 359 52 359 57.5 364.5 c 128,-1,32
 63 370 63 370 71 370 c 2,33,-1
 453 370 l 2,34,35
 462 370 462 370 467 364 c 128,-1,36
 472 358 472 358 472 351 c 2,37,-1
 472 141 l 2,8,9
376 217 m 0,38,39
 393 218 393 218 403.5 228.5 c 128,-1,40
 414 239 414 239 414 255.5 c 128,-1,41
 414 272 414 272 403.5 282.5 c 128,-1,42
 393 293 393 293 376.5 293 c 128,-1,43
 360 293 360 293 349.5 282.5 c 128,-1,44
 339 272 339 272 339 255.5 c 128,-1,45
 339 239 339 239 349.5 228 c 128,-1,46
 360 217 360 217 376 217 c 0,38,39
148 217 m 0,47,48
 164 218 164 218 174.5 228.5 c 128,-1,49
 185 239 185 239 185 255.5 c 128,-1,50
 185 272 185 272 174.5 282.5 c 128,-1,51
 164 293 164 293 147.5 293 c 128,-1,52
 131 293 131 293 120.5 282.5 c 128,-1,53
 110 272 110 272 110 255.5 c 128,-1,54
 110 239 110 239 120.5 228 c 128,-1,55
 131 217 131 217 148 217 c 0,47,48
90 407 m 2,56,57
 90 416 90 416 95.5 421 c 128,-1,58
 101 426 101 426 110 426 c 2,59,-1
 414 426 l 2,60,61
 423 426 423 426 428 421 c 0,62,63
 434 416 434 416 434 407 c 2,64,-1
 434 388 l 1,65,-1
 90 388 l 1,66,-1
 90 407 l 2,56,57
EndSplineSet
EndChar

StartChar: bitrate-kbs
Encoding: 88 88 30
Width: 512
GlyphClass: 2
Flags: W
LayerCount: 2
Fore
SplineSet
76 231 m 1,0,-1
 58 209 l 1,1,-1
 58 145 l 1,2,-1
 13 145 l 1,3,-1
 13 367 l 1,4,-1
 58 367 l 1,5,-1
 58 270 l 1,6,-1
 72 294 l 1,7,-1
 113 367 l 1,8,-1
 168 367 l 1,9,-1
 104 269 l 1,10,-1
 169 145 l 1,11,-1
 116 145 l 1,12,-1
 76 231 l 1,0,-1
190 145 m 1,13,-1
 190 367 l 1,14,-1
 259 367 l 2,15,16
 277 367 277 367 289 363 c 0,17,18
 305 357 305 357 311 352 c 0,19,20
 320 344 320 344 325 333 c 0,21,22
 329 322 329 322 329 306 c 0,23,24
 329 296 329 296 328 291 c 128,-1,25
 327 286 327 286 323 278 c 0,26,27
 322 276 322 276 320.5 274 c 128,-1,28
 319 272 319 272 317 269.5 c 128,-1,29
 315 267 315 267 314 266 c 0,30,31
 308 261 308 261 302 259 c 1,32,33
 308 258 308 258 316 252 c 0,34,35
 322 248 322 248 326 241 c 0,36,37
 329 237 329 237 331 226 c 0,38,39
 333 216 333 216 333 210 c 0,40,41
 333 178 333 178 315 162 c 0,42,43
 296 145 296 145 264 145 c 2,44,-1
 190 145 l 1,13,-1
236 274 m 1,45,-1
 259 274 l 2,46,47
 272 274 272 274 279 281 c 0,48,49
 285 288 285 288 285 302 c 0,50,51
 285 317 285 317 279 323 c 0,52,53
 273 330 273 330 259 330 c 2,54,-1
 236 330 l 1,55,-1
 236 274 l 1,45,-1
236 242 m 1,56,-1
 236 183 l 1,57,-1
 264 183 l 2,58,59
 272 183 272 183 275 185 c 0,60,61
 280 186 280 186 283 191 c 0,62,63
 287 197 287 197 287 200 c 0,64,65
 289 208 289 208 289 211 c 0,66,67
 289 224 289 224 284 234 c 0,68,69
 279 242 279 242 266 242 c 2,70,-1
 236 242 l 1,56,-1
454 203 m 0,71,72
 454 205 454 205 453.5 208.5 c 128,-1,73
 453 212 453 212 453 214 c 0,74,75
 451 220 451 220 448 222 c 0,76,77
 446 224 446 224 438 230 c 0,78,79
 425 236 425 236 421 238 c 0,80,81
 410 242 410 242 398 249 c 0,82,83
 386 255 386 255 378 263 c 0,84,85
 371 270 371 270 364 282 c 0,86,87
 359 291 359 291 359 307 c 128,-1,88
 359 323 359 323 364 332 c 0,89,90
 371 346 371 346 378 352 c 0,91,92
 389 360 389 360 400 364 c 0,93,94
 415 369 415 369 429 369 c 0,95,96
 444 369 444 369 457 364 c 0,97,98
 470 358 470 358 479 349 c 0,99,100
 489 339 489 339 493 328 c 0,101,102
 498 313 498 313 498 300 c 1,103,-1
 454 300 l 1,104,105
 454 305 454 305 452 313 c 0,106,107
 450 320 450 320 447 323 c 0,108,109
 444 328 444 328 439 330 c 0,110,111
 433 332 433 332 428 332 c 0,112,113
 420 332 420 332 416 330 c 0,114,115
 413 329 413 329 409 325 c 0,116,117
 406 322 406 322 404 316 c 128,-1,118
 402 310 402 310 402 306 c 0,119,120
 402 300 402 300 405 296 c 0,121,122
 406 295 406 295 408 292.5 c 128,-1,123
 410 290 410 290 412 288 c 0,124,125
 413 288 413 288 416.5 285 c 128,-1,126
 420 282 420 282 422 281 c 2,127,-1
 436 274 l 2,128,129
 451 270 451 270 463 262 c 0,130,131
 471 258 471 258 482 247 c 0,132,133
 492 236 492 236 494 227 c 0,134,135
 498 218 498 218 498 203 c 0,136,137
 498 189 498 189 493 177 c 0,138,139
 489 167 489 167 479 157 c 0,140,141
 470 150 470 150 458 145 c 0,142,143
 442 141 442 141 429 141 c 0,144,145
 419 141 419 141 401 145 c 0,146,147
 387 150 387 150 376 159 c 0,148,149
 367 167 367 167 359 181 c 0,150,151
 352 194 352 194 352 214 c 1,152,-1
 397 214 l 1,153,154
 397 207 397 207 399 197 c 0,155,156
 404 188 404 188 406 186 c 0,157,158
 410 182 410 182 415 180 c 0,159,160
 423 178 423 178 429 178 c 0,161,162
 437 178 437 178 440 180 c 0,163,164
 443 181 443 181 447 185 c 0,165,166
 450 188 450 188 451 193 c 0,167,168
 454 199 454 199 454 203 c 0,71,72
EndSplineSet
EndChar

StartChar: Y
Encoding: 89 89 31
Width: 518
GlyphClass: 2
Flags: W
LayerCount: 2
Fore
SplineSet
224 120 m 1,0,-1
 224 105 l 1,1,-1
 278 139 l 1,2,-1
 224 173 l 1,3,-1
 224 160 l 1,4,5
 143 164 143 164 88.5 183 c 128,-1,6
 34 202 34 202 34 228 c 0,7,8
 34 258 34 258 108 278 c 1,9,-1
 108 290 l 1,10,11
 6 262 6 262 6 214 c 0,12,13
 6 178 6 178 68.5 151.5 c 128,-1,14
 131 125 131 125 224 120 c 1,0,-1
306 121 m 1,15,16
 363 125 363 125 409.5 138 c 128,-1,17
 456 151 456 151 483 171 c 128,-1,18
 510 191 510 191 510 214 c 0,19,20
 510 262 510 262 408 290 c 1,21,-1
 408 278 l 1,22,23
 482 258 482 258 482 228 c 0,24,25
 482 203 482 203 432 184.5 c 128,-1,26
 382 166 382 166 306 161 c 1,27,-1
 306 121 l 1,15,16
175 300 m 1,28,-1
 175 286 l 1,29,-1
 185 286 l 2,30,31
 188 286 188 286 191 285 c 0,32,33
 193 285 193 285 195 283 c 128,-1,34
 197 281 197 281 198 279 c 128,-1,35
 199 277 199 277 199 273 c 0,36,37
 199 270 199 270 198 268 c 128,-1,38
 197 266 197 266 195.5 264.5 c 128,-1,39
 194 263 194 263 191.5 262 c 128,-1,40
 189 261 189 261 186 261 c 128,-1,41
 183 261 183 261 180.5 262 c 128,-1,42
 178 263 178 263 176.5 264.5 c 128,-1,43
 175 266 175 266 174 268 c 128,-1,44
 173 270 173 270 173 272 c 2,45,-1
 156 272 l 1,46,47
 156 266 156 266 158.5 261 c 128,-1,48
 161 256 161 256 165 253 c 128,-1,49
 169 250 169 250 174.5 248.5 c 128,-1,50
 180 247 180 247 185 247 c 0,51,52
 192 247 192 247 197.5 248.5 c 128,-1,53
 203 250 203 250 207.5 253.5 c 128,-1,54
 212 257 212 257 214.5 262 c 128,-1,55
 217 267 217 267 217 273 c 0,56,57
 217 280 217 280 213 285.5 c 128,-1,58
 209 291 209 291 202 293 c 1,59,60
 205 295 205 295 207.5 297 c 128,-1,61
 210 299 210 299 212 301 c 0,62,63
 215 306 215 306 215 312 c 128,-1,64
 215 318 215 318 213 323 c 128,-1,65
 211 328 211 328 207 331 c 128,-1,66
 203 334 203 334 197.5 335.5 c 128,-1,67
 192 337 192 337 185 337 c 0,68,69
 180 337 180 337 174.5 335.5 c 128,-1,70
 169 334 169 334 165 331 c 128,-1,71
 161 328 161 328 159 323.5 c 128,-1,72
 157 319 157 319 157 313 c 1,73,-1
 174 313 l 1,74,75
 174 318 174 318 178 320 c 0,76,77
 179 322 179 322 181.5 322.5 c 128,-1,78
 184 323 184 323 186 323 c 0,79,80
 189 323 189 323 191 322.5 c 128,-1,81
 193 322 193 322 194.5 320 c 128,-1,82
 196 318 196 318 197 316 c 128,-1,83
 198 314 198 314 198 312 c 0,84,85
 198 306 198 306 194.5 303 c 128,-1,86
 191 300 191 300 185 300 c 2,87,-1
 175 300 l 1,28,-1
276 337 m 1,88,-1
 273 337 l 2,89,90
 263 337 263 337 254.5 333.5 c 128,-1,91
 246 330 246 330 240.5 323.5 c 128,-1,92
 235 317 235 317 232 308 c 128,-1,93
 229 299 229 299 229 289 c 2,94,-1
 229 282 l 2,95,96
 229 274 229 274 231 267.5 c 128,-1,97
 233 261 233 261 237 256.5 c 128,-1,98
 241 252 241 252 246.5 249.5 c 128,-1,99
 252 247 252 247 260 247 c 0,100,101
 266 247 266 247 271.5 249.5 c 128,-1,102
 277 252 277 252 281 256 c 128,-1,103
 285 260 285 260 287 265.5 c 128,-1,104
 289 271 289 271 289 277 c 128,-1,105
 289 283 289 283 287.5 288.5 c 128,-1,106
 286 294 286 294 283 298 c 128,-1,107
 280 302 280 302 275 304.5 c 128,-1,108
 270 307 270 307 264 307 c 128,-1,109
 258 307 258 307 254 305 c 128,-1,110
 250 303 250 303 246 300 c 1,111,112
 247 305 247 305 249 309 c 128,-1,113
 251 313 251 313 255 316 c 128,-1,114
 259 319 259 319 264 321 c 128,-1,115
 269 323 269 323 275 323 c 1,116,-1
 276 337 l 1,88,-1
259 293 m 128,-1,118
 262 293 262 293 264.5 292 c 128,-1,119
 267 291 267 291 268.5 288.5 c 128,-1,120
 270 286 270 286 271 283 c 128,-1,121
 272 280 272 280 272 277 c 128,-1,122
 272 274 272 274 271 271 c 128,-1,123
 270 268 270 268 268.5 266 c 128,-1,124
 267 264 267 264 264.5 262.5 c 128,-1,125
 262 261 262 261 259 261 c 128,-1,126
 256 261 256 261 253.5 262 c 128,-1,127
 251 263 251 263 249.5 265.5 c 128,-1,128
 248 268 248 268 247 271.5 c 128,-1,129
 246 275 246 275 246 280 c 2,130,-1
 246 285 l 2,131,132
 247 287 247 287 248 288 c 2,133,-1
 251 290 l 2,134,135
 252 292 252 292 254 292.5 c 128,-1,117
 256 293 256 293 259 293 c 128,-1,118
358 285 m 2,136,-1
 358 300 l 2,137,138
 358 310 358 310 356 317 c 128,-1,139
 354 324 354 324 350 328.5 c 128,-1,140
 346 333 346 333 340.5 335 c 128,-1,141
 335 337 335 337 328.5 337 c 128,-1,142
 322 337 322 337 316.5 335 c 128,-1,143
 311 333 311 333 307 328.5 c 128,-1,144
 303 324 303 324 301 317 c 128,-1,145
 299 310 299 310 299 300 c 2,146,-1
 299 285 l 2,147,148
 299 275 299 275 301 267.5 c 128,-1,149
 303 260 303 260 307 255.5 c 128,-1,150
 311 251 311 251 316.5 249 c 128,-1,151
 322 247 322 247 328.5 247 c 128,-1,152
 335 247 335 247 340.5 249 c 128,-1,153
 346 251 346 251 350 255.5 c 128,-1,154
 354 260 354 260 356 267.5 c 128,-1,155
 358 275 358 275 358 285 c 2,136,-1
341 302 m 2,156,-1
 341 282 l 2,157,158
 341 276 341 276 340 272 c 128,-1,159
 339 268 339 268 337.5 265.5 c 128,-1,160
 336 263 336 263 334 262 c 128,-1,161
 332 261 332 261 329 261 c 128,-1,162
 326 261 326 261 323.5 262 c 128,-1,163
 321 263 321 263 319.5 265.5 c 128,-1,164
 318 268 318 268 317 272 c 128,-1,165
 316 276 316 276 316 282 c 2,166,-1
 316 302 l 2,167,168
 316 308 316 308 317 312 c 128,-1,169
 318 316 318 316 319.5 318.5 c 128,-1,170
 321 321 321 321 323.5 322 c 128,-1,171
 326 323 326 323 329 323 c 128,-1,172
 332 323 332 323 334 322 c 128,-1,173
 336 321 336 321 337.5 318.5 c 128,-1,174
 339 316 339 316 340 312 c 128,-1,175
 341 308 341 308 341 302 c 2,156,-1
EndSplineSet
EndChar

StartChar: discovery-flame
Encoding: 90 90 32
Width: 512
GlyphClass: 2
Flags: W
LayerCount: 2
Fore
SplineSet
326 48 m 0,0,1
 354 117 354 117 334 185 c 128,-1,2
 314 253 314 253 263 289 c 1,3,4
 263 284 263 284 263.5 278 c 128,-1,5
 264 272 264 272 265 265 c 128,-1,6
 266 258 266 258 266 254 c 0,7,8
 272 204 272 204 270 179 c 0,9,10
 268 159 268 159 262 147 c 0,11,12
 262 146 262 146 260 144 c 128,-1,13
 258 142 258 142 258 141 c 1,14,15
 253 161 253 161 236.5 194 c 128,-1,16
 220 227 220 227 217 234 c 1,17,18
 216 232 216 232 213 224 c 0,19,20
 211 218 211 218 209 215 c 0,21,22
 202 190 202 190 187 168 c 0,23,24
 175 151 175 151 167 131 c 0,25,26
 156 102 156 102 169 63 c 0,27,28
 173 56 173 56 176 46 c 1,29,-1
 173 47 l 1,30,31
 124 74 124 74 98 109 c 0,32,33
 66 149 66 149 79 211 c 0,34,35
 83 228 83 228 103 270 c 0,36,37
 125 314 125 314 128 340 c 1,38,39
 141 321 141 321 145 275 c 0,40,41
 148 275 148 275 148 277 c 0,42,43
 198 339 198 339 216 390 c 0,44,45
 228 427 228 427 225 457 c 2,46,-1
 225 462 l 2,47,48
 228 462 228 462 240 457 c 0,49,50
 285 431 285 431 316 377 c 0,51,52
 327 358 327 358 341 318 c 0,53,54
 343 312 343 312 344 311 c 0,55,56
 355 321 355 321 358 341.5 c 128,-1,57
 361 362 361 362 353 381 c 0,58,59
 355 382 355 382 359 378 c 0,60,61
 422 315 422 315 437 240 c 0,62,63
 453 162 453 162 397 100 c 0,64,65
 368 68 368 68 331 49 c 0,66,67
 328 47 328 47 326 48 c 0,0,1
EndSplineSet
EndChar

StartChar: bracketleft
Encoding: 91 91 33
Width: 518
GlyphClass: 2
Flags: W
LayerCount: 2
Fore
SplineSet
148 234 m 1,0,-1
 153 239 l 1,1,-1
 125 268 l 1,2,-1
 151 294 l 1,3,-1
 146 299 l 1,4,-1
 141 304 l 1,5,-1
 110 273 l 1,6,-1
 105 268 l 1,7,-1
 110 263 l 1,8,-1
 143 229 l 1,9,-1
 148 234 l 1,0,-1
363 299 m 1,10,-1
 358 294 l 1,11,-1
 387 266 l 1,12,-1
 361 239 l 1,13,-1
 366 234 l 1,14,-1
 370 229 l 1,15,-1
 402 261 l 1,16,-1
 407 266 l 1,17,-1
 402 270 l 1,18,-1
 368 304 l 1,19,-1
 363 299 l 1,10,-1
48 269.5 m 128,-1,21
 48 355 48 355 108.5 416 c 128,-1,22
 169 477 169 477 255 477 c 128,-1,23
 341 477 341 477 401.5 416 c 128,-1,24
 462 355 462 355 462 269.5 c 128,-1,25
 462 184 462 184 401.5 123 c 128,-1,26
 341 62 341 62 255 62 c 128,-1,27
 169 62 169 62 108.5 123 c 128,-1,20
 48 184 48 184 48 269.5 c 128,-1,21
223 383 m 1,28,-1
 228 378 l 1,29,-1
 257 406 l 1,30,-1
 283 380 l 1,31,-1
 288 385 l 1,32,-1
 293 390 l 1,33,-1
 262 421 l 1,34,-1
 257 426 l 1,35,-1
 252 421 l 1,36,-1
 218 388 l 1,37,-1
 223 383 l 1,28,-1
288 162 m 1,38,-1
 283 167 l 1,39,-1
 255 138 l 1,40,-1
 228 164 l 1,41,-1
 223 159 l 1,42,-1
 218 155 l 1,43,-1
 250 123 l 1,44,-1
 255 118 l 1,45,-1
 259 123 l 1,46,-1
 293 157 l 1,47,-1
 288 162 l 1,38,-1
EndSplineSet
EndChar

StartChar: bracketright
Encoding: 93 93 35
Width: 518
GlyphClass: 2
Flags: W
LayerCount: 2
Fore
SplineSet
0 256 m 128,-1,1
 0 362 0 362 75 437 c 128,-1,2
 150 512 150 512 256 512 c 128,-1,3
 362 512 362 512 437 437 c 128,-1,4
 512 362 512 362 512 256 c 128,-1,5
 512 150 512 150 437 75 c 128,-1,6
 362 0 362 0 256 0 c 128,-1,7
 150 0 150 0 75 75 c 128,-1,0
 0 150 0 150 0 256 c 128,-1,1
EndSplineSet
EndChar

StartChar: underscore
Encoding: 95 95 37
Width: 512
GlyphClass: 2
Flags: W
LayerCount: 2
Fore
SplineSet
441 118 m 2,0,-1
 379 118 l 1,1,-1
 306 70 l 1,2,-1
 230 118 l 1,3,-1
 69 118 l 2,4,5
 61 118 61 118 55.5 123.5 c 128,-1,6
 50 129 50 129 50 137 c 2,7,-1
 50 349 l 2,8,9
 50 357 50 357 55.5 362.5 c 128,-1,10
 61 368 61 368 69 368 c 2,11,-1
 441 368 l 2,12,13
 449 368 449 368 454.5 362.5 c 128,-1,14
 460 357 460 357 460 349 c 2,15,-1
 460 137 l 2,16,17
 460 129 460 129 454.5 123.5 c 128,-1,18
 449 118 449 118 441 118 c 2,0,-1
343 226 m 2,19,-1
 401 226 l 2,20,21
 406 226 406 226 409 228 c 128,-1,22
 412 230 412 230 414 233 c 128,-1,23
 416 236 416 236 416 240 c 0,24,25
 416 246 416 246 412 250 c 128,-1,26
 408 254 408 254 402 254 c 2,27,-1
 343 254 l 2,28,29
 337 254 337 254 332.5 250 c 128,-1,30
 328 246 328 246 328 240 c 128,-1,31
 328 234 328 234 332.5 230 c 128,-1,32
 337 226 337 226 343 226 c 2,19,-1
109 169 m 2,33,-1
 167 169 l 2,34,35
 173 169 173 169 177.5 173 c 128,-1,36
 182 177 182 177 182 183 c 128,-1,37
 182 189 182 189 177.5 193.5 c 128,-1,38
 173 198 173 198 167 198 c 2,39,-1
 109 198 l 2,40,41
 102 198 102 198 98 193.5 c 128,-1,42
 94 189 94 189 94 183 c 128,-1,43
 94 177 94 177 98 173 c 128,-1,44
 102 169 102 169 109 169 c 2,33,-1
109 226 m 2,45,-1
 284 226 l 2,46,47
 287 226 287 226 290 227 c 128,-1,48
 293 228 293 228 295 230 c 128,-1,49
 297 232 297 232 298 234.5 c 128,-1,50
 299 237 299 237 299 240 c 0,51,52
 299 246 299 246 294.5 250 c 128,-1,53
 290 254 290 254 285 254 c 2,54,-1
 109 254 l 2,55,56
 104 254 104 254 101 252.5 c 128,-1,57
 98 251 98 251 96 247.5 c 128,-1,58
 94 244 94 244 94 240 c 0,59,60
 94 234 94 234 98 230 c 128,-1,61
 102 226 102 226 109 226 c 2,45,-1
226 169 m 2,62,-1
 401 169 l 2,63,64
 406 169 406 169 409 171 c 128,-1,65
 412 173 412 173 414 176 c 128,-1,66
 416 179 416 179 416 183 c 0,67,68
 416 189 416 189 412 193.5 c 128,-1,69
 408 198 408 198 402 198 c 2,70,-1
 226 198 l 2,71,72
 220 198 220 198 215.5 193.5 c 128,-1,73
 211 189 211 189 211 183 c 128,-1,74
 211 177 211 177 215.5 173 c 128,-1,75
 220 169 220 169 226 169 c 2,62,-1
EndSplineSet
EndChar

StartChar: discovery-mm-ooyala-large
Encoding: 97 97 38
Width: 512
GlyphClass: 2
Flags: W
LayerCount: 2
Fore
SplineSet
158 327 m 0,0,1
 156 335 156 335 148 333 c 0,2,3
 138 329 138 329 142 322 c 0,4,5
 144 312 144 312 152 316 c 0,6,7
 162 318 162 318 158 327 c 0,0,1
157 299 m 2,8,-1
 134 304 l 2,9,10
 133 304 133 304 133 303 c 2,11,-1
 136 261 l 1,12,-1
 138 260 l 1,13,-1
 158 298 l 2,14,15
 158 299 158 299 157 299 c 2,8,-1
144 346 m 2,16,-1
 164 342 l 2,17,18
 167 342 167 342 167 344 c 2,19,-1
 165 387 l 2,20,21
 165 388 165 388 163.5 388.5 c 128,-1,22
 162 389 162 389 161 388 c 2,23,-1
 142 349 l 2,24,25
 142 346 142 346 144 346 c 2,16,-1
53 389 m 2,26,-1
 101 434 l 2,27,28
 103 435 103 435 102 437 c 128,-1,29
 101 439 101 439 99 440 c 2,30,-1
 37 458 l 2,31,32
 33 458 33 458 33 455 c 2,33,-1
 47 392 l 2,34,35
 49 385 49 385 53 389 c 2,26,-1
101 394 m 1,36,-1
 95 375 l 1,37,-1
 82 390 l 1,38,-1
 101 394 l 1,36,-1
193 402 m 1,39,-1
 198 400 l 1,40,-1
 191 387 l 1,41,-1
 186 390 l 1,42,-1
 193 402 l 1,39,-1
201 398 m 1,43,-1
 206 395 l 1,44,-1
 199 382 l 1,45,-1
 194 385 l 1,46,-1
 201 398 l 1,43,-1
91 270 m 1,47,-1
 100 277 l 1,48,-1
 107 267 l 1,49,-1
 98 260 l 1,50,-1
 91 270 l 1,47,-1
86 330 m 0,51,52
 86 325 86 325 81 325 c 128,-1,53
 76 325 76 325 76 330 c 0,54,55
 76 334 76 334 81 334 c 128,-1,56
 86 334 86 334 86 330 c 0,51,52
231 347 m 0,57,58
 231 342 231 342 227 342 c 0,59,60
 222 342 222 342 222 347 c 0,61,62
 222 351 222 351 227 351 c 0,63,64
 231 351 231 351 231 347 c 0,57,58
149 411 m 0,65,66
 149 407 149 407 144 407 c 0,67,68
 140 407 140 407 140 411 c 0,69,70
 140 416 140 416 144 416 c 0,71,72
 149 416 149 416 149 411 c 0,65,66
98 440 m 1,73,74
 122 453 122 453 152 451 c 0,75,76
 219 447 219 447 253 387 c 0,77,78
 265 364 265 364 267 333 c 0,79,80
 267 327 267 327 263 324.5 c 128,-1,81
 259 322 259 322 254 324 c 128,-1,82
 249 326 249 326 249 332 c 0,83,84
 247 364 247 364 230 389 c 128,-1,85
 213 414 213 414 184 425.5 c 128,-1,86
 155 437 155 437 125 431 c 0,87,88
 94 423 94 423 72.5 400.5 c 128,-1,89
 51 378 51 378 47 347 c 0,90,91
 41 312 41 312 58 281 c 128,-1,92
 75 250 75 250 108 237 c 0,93,94
 109 237 109 237 110 236 c 0,95,96
 118 231 118 231 115 224 c 0,97,98
 111 217 111 217 102 220 c 0,99,100
 79 229 79 229 66 243 c 0,101,102
 34 272 34 272 27.5 314 c 128,-1,103
 21 356 21 356 44 393 c 0,104,105
 46 395 46 395 46 397 c 1,106,107
 48 397 48 397 48 393 c 0,108,109
 50 386 50 386 55 391 c 0,110,111
 72 408 72 408 81 416 c 0,112,113
 93 426 93 426 98 432 c 0,114,115
 101 436 101 436 98 440 c 1,73,74
98 440 m 1,116,117
 104 436 104 436 99 431 c 0,118,119
 69 403 69 403 55 390 c 0,120,121
 50 385 50 385 48 392 c 2,122,-1
 48 395 l 2,123,124
 48 396 48 396 47 397 c 0,125,126
 41 420 41 420 34 453 c 0,127,128
 33 456 33 456 34.5 457 c 128,-1,129
 36 458 36 458 39 457 c 0,130,131
 48 454 48 454 66 448.5 c 128,-1,132
 84 443 84 443 93 441 c 2,133,-1
 95 440 l 1,134,-1
 98 440 l 1,116,117
328 132 m 0,135,136
 317 133 317 133 317 145 c 2,137,-1
 317 158 l 1,138,139
 300 152 300 152 293.5 152 c 128,-1,140
 287 152 287 152 272 158 c 1,141,-1
 272 143 l 2,142,143
 272 132 272 132 262 130 c 0,144,145
 262 128 262 128 261 124 c 128,-1,146
 260 120 260 120 260 118 c 0,147,148
 255 89 255 89 232.5 71 c 128,-1,149
 210 53 210 53 179 54 c 0,150,151
 152 55 152 55 131 74.5 c 128,-1,152
 110 94 110 94 106 122 c 0,153,154
 101 162 101 162 131 189 c 2,155,-1
 135 193 l 2,156,157
 142 204 142 204 156.5 223.5 c 128,-1,158
 171 243 171 243 178 254 c 0,159,160
 179 255 179 255 180 258 c 2,161,-1
 181 261 l 2,162,163
 182 276 182 276 193 287.5 c 128,-1,164
 204 299 204 299 219 301 c 0,165,166
 235 302 235 302 248.5 293 c 128,-1,167
 262 284 262 284 266 269 c 0,168,169
 266 266 266 266 267 264 c 1,170,171
 296 287 296 287 323 265 c 1,172,173
 325 273 325 273 327 276 c 0,174,175
 340 305 340 305 373 300 c 0,176,177
 388 298 388 298 398 288 c 128,-1,178
 408 278 408 278 409 263 c 0,179,180
 411 254 411 254 414 250 c 128,-1,181
 417 246 417 246 432 225.5 c 128,-1,182
 447 205 447 205 455 194 c 0,183,184
 456 192 456 192 464 184 c 0,185,186
 496 147 496 147 478 101 c 0,187,188
 457 56 457 56 407 54 c 0,189,190
 376 54 376 54 353.5 75.5 c 128,-1,191
 331 97 331 97 329 128 c 0,192,193
 329 131 329 131 328 132 c 0,135,136
251 133 m 0,194,195
 251 160 251 160 231.5 180 c 128,-1,196
 212 200 212 200 184 200 c 128,-1,197
 156 200 156 200 136 180.5 c 128,-1,198
 116 161 116 161 116 133 c 128,-1,199
 116 105 116 105 135.5 85 c 128,-1,200
 155 65 155 65 183 65 c 0,201,202
 212 65 212 65 231.5 84.5 c 128,-1,203
 251 104 251 104 251 133 c 0,194,195
474 133 m 0,204,205
 474 160 474 160 454.5 180 c 128,-1,206
 435 200 435 200 407 200 c 128,-1,207
 379 200 379 200 359 180.5 c 128,-1,208
 339 161 339 161 339 133 c 128,-1,209
 339 105 339 105 358.5 85 c 128,-1,210
 378 65 378 65 406 65 c 128,-1,211
 434 65 434 65 454 85 c 128,-1,212
 474 105 474 105 474 133 c 0,204,205
295 215 m 128,-1,214
 286 215 286 215 279 208.5 c 128,-1,215
 272 202 272 202 272 193 c 0,216,217
 272 183 272 183 279 176.5 c 128,-1,218
 286 170 286 170 295 170 c 128,-1,219
 304 170 304 170 310.5 177 c 128,-1,220
 317 184 317 184 317 193 c 128,-1,221
 317 202 317 202 310.5 208.5 c 128,-1,213
 304 215 304 215 295 215 c 128,-1,214
EndSplineSet
EndChar

StartChar: volume-on-ooyala-defualt
Encoding: 98 98 39
Width: 512
GlyphClass: 2
Flags: W
LayerCount: 2
Fore
SplineSet
359 199 m 1,0,1
 383 199 383 199 400 215.5 c 128,-1,2
 417 232 417 232 417 256 c 128,-1,3
 417 280 417 280 400.5 296.5 c 128,-1,4
 384 313 384 313 359 313 c 1,5,-1
 359 199 l 1,0,1
68 135 m 2,6,-1
 16 135 l 2,7,8
 7 135 7 135 7 145 c 2,9,-1
 7 355 l 2,10,11
 7 365 7 365 16 365 c 2,12,-1
 68 365 l 2,13,14
 70 365 70 365 70 363 c 2,15,-1
 70 137 l 2,16,17
 72 135 72 135 68 135 c 2,6,-1
119 159 m 2,18,-1
 119 349 l 2,19,20
 119 354 119 354 123 358.5 c 128,-1,21
 127 363 127 363 132 363 c 2,22,-1
 192 363 l 2,23,24
 194 363 194 363 194 364 c 2,25,-1
 309 445 l 2,26,27
 311 447 311 447 313.5 445.5 c 128,-1,28
 316 444 316 444 316 441 c 2,29,-1
 316 71 l 2,30,31
 316 69 316 69 313.5 67.5 c 128,-1,32
 311 66 311 66 309 67 c 2,33,-1
 190 144 l 1,34,-1
 188 144 l 1,35,-1
 132 144 l 2,36,37
 119 144 119 144 119 159 c 2,18,-1
388 137 m 0,38,39
 376 137 376 137 376 149 c 128,-1,40
 376 161 376 161 388 161 c 0,41,42
 427 161 427 161 454.5 188.5 c 128,-1,43
 482 216 482 216 482 255 c 0,44,45
 482 295 482 295 454.5 322.5 c 128,-1,46
 427 350 427 350 388 350 c 0,47,48
 376 350 376 350 376 362 c 128,-1,49
 376 374 376 374 388 374 c 0,50,51
 438 374 438 374 472.5 339 c 128,-1,52
 507 304 507 304 507 255 c 0,53,54
 506 206 506 206 471.5 171.5 c 128,-1,55
 437 137 437 137 388 137 c 0,38,39
EndSplineSet
EndChar

StartChar: system-replay
Encoding: 99 99 40
Width: 512
GlyphClass: 2
Flags: W
LayerCount: 2
Fore
SplineSet
242 410 m 1,0,1
 242 404 242 404 247 404 c 0,2,3
 331 402 331 402 384 342 c 0,4,5
 403 320 403 320 414 292 c 0,6,7
 434 243 434 243 423.5 191.5 c 128,-1,8
 413 140 413 140 375 99 c 2,9,-1
 374 98 l 2,10,11
 326 54 326 54 266 48 c 128,-1,12
 206 42 206 42 156 72.5 c 128,-1,13
 106 103 106 103 83 158 c 0,14,15
 76 176 76 176 58 171 c 0,16,17
 49 168 49 168 45 160 c 128,-1,18
 41 152 41 152 45 144 c 0,19,20
 79 60 79 60 162 24 c 0,21,22
 204 6 204 6 248 6 c 0,23,24
 334 6 334 6 402 68 c 1,25,-1
 402 69 l 1,26,27
 450 119 450 119 463 183.5 c 128,-1,28
 476 248 476 248 452 307 c 0,29,30
 440 338 440 338 415 368 c 0,31,32
 349 445 349 445 247 445 c 0,33,34
 241 445 241 445 241 439 c 2,35,-1
 241 410 l 1,36,-1
 242 410 l 1,0,1
61 419 m 2,37,-1
 207 335 l 2,38,39
 208 334 208 334 209 334.5 c 128,-1,40
 210 335 210 335 210 336 c 2,41,-1
 210 505 l 2,42,43
 210 508 210 508 208 506 c 2,44,-1
 61 422 l 2,45,46
 60 420 60 420 61 419 c 2,37,-1
EndSplineSet
EndChar

StartChar: system-auto
Encoding: 100 100 41
Width: 512
GlyphClass: 2
Flags: W
LayerCount: 2
Fore
SplineSet
451 25 m 2,0,-1
 61 25 l 2,1,2
 41 25 41 25 26.5 39.5 c 128,-1,3
 12 54 12 54 12 74 c 2,4,-1
 12 438 l 2,5,6
 12 458 12 458 26.5 472.5 c 128,-1,7
 41 487 41 487 61 487 c 2,8,-1
 451 487 l 2,9,10
 471 487 471 487 485.5 472.5 c 128,-1,11
 500 458 500 458 500 438 c 2,12,-1
 500 74 l 2,13,14
 500 54 500 54 485.5 39.5 c 128,-1,15
 471 25 471 25 451 25 c 2,0,-1
318 94 m 1,16,-1
 388 94 l 1,17,-1
 286 418 l 1,18,-1
 226 418 l 1,19,-1
 124 94 l 1,20,-1
 194 94 l 1,21,-1
 211 160 l 1,22,-1
 300 160 l 1,23,-1
 318 94 l 1,16,-1
255 330 m 1,24,-1
 286 215 l 1,25,-1
 225 215 l 1,26,-1
 255 330 l 1,24,-1
EndSplineSet
EndChar

StartChar: system-close
Encoding: 101 101 42
Width: 512
GlyphClass: 2
Flags: W
LayerCount: 2
Fore
SplineSet
39 21 m 0,0,1
 33 21 33 21 26 26 c 0,2,3
 13 39 13 39 26 51 c 2,4,-1
 460 485 l 2,5,6
 465 491 465 491 473 491 c 128,-1,7
 481 491 481 491 485 485 c 0,8,9
 499 472 499 472 485 460 c 2,10,-1
 52 27 l 2,11,12
 46 21 46 21 39 21 c 0,0,1
473 21 m 0,13,14
 467 21 467 21 460 26 c 2,15,-1
 27 460 l 2,16,17
 21 465 21 465 21 473 c 128,-1,18
 21 481 21 481 27 486 c 0,19,20
 40 498 40 498 52 486 c 2,21,-1
 486 52 l 2,22,23
 498 40 498 40 486 27 c 0,24,25
 480 21 480 21 473 21 c 0,13,14
EndSplineSet
EndChar

StartChar: system-menu
Encoding: 102 102 43
Width: 512
GlyphClass: 2
Flags: W
LayerCount: 2
Fore
SplineSet
298 418 m 128,-1,1
 298 401 298 401 285.5 388.5 c 128,-1,2
 273 376 273 376 256 376 c 128,-1,3
 239 376 239 376 226.5 388.5 c 128,-1,4
 214 401 214 401 214 418 c 128,-1,5
 214 435 214 435 226.5 447.5 c 128,-1,6
 239 460 239 460 256 460 c 128,-1,7
 273 460 273 460 285.5 447.5 c 128,-1,0
 298 435 298 435 298 418 c 128,-1,1
298 256 m 128,-1,9
 298 239 298 239 285.5 226.5 c 128,-1,10
 273 214 273 214 256 214 c 128,-1,11
 239 214 239 214 226.5 226.5 c 128,-1,12
 214 239 214 239 214 256 c 128,-1,13
 214 273 214 273 226.5 285.5 c 128,-1,14
 239 298 239 298 256 298 c 128,-1,15
 273 298 273 298 285.5 285.5 c 128,-1,8
 298 273 298 273 298 256 c 128,-1,9
298 94 m 128,-1,17
 298 77 298 77 285.5 64.5 c 128,-1,18
 273 52 273 52 256 52 c 128,-1,19
 239 52 239 52 226.5 64.5 c 128,-1,20
 214 77 214 77 214 94 c 128,-1,21
 214 111 214 111 226.5 123.5 c 128,-1,22
 239 136 239 136 256 136 c 128,-1,23
 273 136 273 136 285.5 123.5 c 128,-1,16
 298 111 298 111 298 94 c 128,-1,17
EndSplineSet
EndChar

StartChar: pause-slick
Encoding: 103 103 44
Width: 512
GlyphClass: 2
Flags: W
LayerCount: 2
Fore
SplineSet
96 71 m 1,0,-1
 96 439 l 2,1,2
 96 441 96 441 99 441 c 2,3,-1
 205 441 l 2,4,5
 207 441 207 441 207 439 c 2,6,-1
 207 71 l 1,7,-1
 96 71 l 1,0,-1
305 71 m 1,8,-1
 305 439 l 2,9,10
 305 441 305 441 307 441 c 2,11,-1
 413 441 l 2,12,13
 416 441 416 441 416 439 c 2,14,-1
 416 71 l 1,15,-1
 305 71 l 1,8,-1
EndSplineSet
EndChar

StartChar: play-slick
Encoding: 104 104 45
Width: 512
GlyphClass: 2
Flags: W
LayerCount: 2
Fore
SplineSet
435 254 m 2,0,-1
 78 50 l 2,1,2
 77 49 77 49 77 51 c 2,3,-1
 77 461 l 1,4,-1
 78 462 l 1,5,-1
 434 257 l 2,6,7
 435 257 435 257 435.5 256 c 128,-1,8
 436 255 436 255 435 254 c 2,0,-1
EndSplineSet
EndChar

StartChar: system-fullscreen
Encoding: 105 105 46
Width: 512
GlyphClass: 2
Flags: W
LayerCount: 2
Fore
SplineSet
98 308 m 1,0,-1
 45 308 l 1,1,-1
 45 444 l 1,2,-1
 175 444 l 1,3,-1
 175 391 l 1,4,-1
 98 391 l 1,5,-1
 98 308 l 1,0,-1
467 308 m 1,6,-1
 414 308 l 1,7,-1
 414 391 l 1,8,-1
 337 391 l 1,9,-1
 337 444 l 1,10,-1
 467 444 l 1,11,-1
 467 308 l 1,6,-1
175 68 m 1,12,-1
 45 68 l 1,13,-1
 45 204 l 1,14,-1
 98 204 l 1,15,-1
 98 121 l 1,16,-1
 175 121 l 1,17,-1
 175 68 l 1,12,-1
467 68 m 1,18,-1
 337 68 l 1,19,-1
 337 121 l 1,20,-1
 414 121 l 1,21,-1
 414 204 l 1,22,-1
 467 204 l 1,23,-1
 467 68 l 1,18,-1
EndSplineSet
EndChar

StartChar: system-minimizescreen
Encoding: 106 106 47
Width: 512
GlyphClass: 2
Flags: W
LayerCount: 2
Fore
SplineSet
95 480 m 1,0,-1
 159 480 l 1,1,-1
 159 317 l 1,2,-1
 5 317 l 1,3,-1
 5 381 l 1,4,-1
 95 381 l 1,5,-1
 95 480 l 1,0,-1
353 480 m 1,6,-1
 417 480 l 1,7,-1
 417 381 l 1,8,-1
 507 381 l 1,9,-1
 507 317 l 1,10,-1
 353 317 l 1,11,-1
 353 480 l 1,6,-1
5 194 m 1,12,-1
 159 194 l 1,13,-1
 159 32 l 1,14,-1
 95 32 l 1,15,-1
 95 131 l 1,16,-1
 5 131 l 1,17,-1
 5 194 l 1,12,-1
353 194 m 1,18,-1
 507 194 l 1,19,-1
 507 131 l 1,20,-1
 417 131 l 1,21,-1
 417 32 l 1,22,-1
 353 32 l 1,23,-1
 353 194 l 1,18,-1
EndSplineSet
EndChar

StartChar: cc
Encoding: 107 107 48
Width: 512
GlyphClass: 2
Flags: W
LayerCount: 2
Fore
SplineSet
229 232 m 1,0,1
 228 183 228 183 201 155 c 0,2,3
 173 129 173 129 126 129 c 0,4,5
 103 129 103 129 81 137 c 0,6,7
 59 148 59 148 49 162 c 0,8,9
 35 179 35 179 28 202 c 0,10,11
 21 230 21 230 21 257 c 2,12,-1
 21 308 l 2,13,14
 21 335 21 335 28 363 c 0,15,16
 35 386 35 386 49 403 c 0,17,18
 59 417 59 417 82 428 c 0,19,20
 99 436 99 436 126 436 c 0,21,22
 176 436 176 436 201 409 c 0,23,24
 226 383 226 383 229 331 c 1,25,-1
 169 331 l 1,26,27
 169 343 169 343 167 357 c 0,28,29
 164 368 164 368 160 374 c 0,30,31
 156 379 156 379 147 383 c 0,32,33
 139 386 139 386 127 386 c 128,-1,34
 115 386 115 386 107 382 c 128,-1,35
 99 378 99 378 93 369 c 0,36,37
 87 355 87 355 86 345 c 0,38,39
 82 330 82 330 82 308 c 2,40,-1
 82 257 l 2,41,42
 82 230 82 230 84 221 c 0,43,44
 87 204 87 204 91 197 c 0,45,46
 96 188 96 188 104 183 c 0,47,48
 112 179 112 179 126 179 c 0,49,50
 135 179 135 179 145 181 c 0,51,52
 155 185 155 185 158 189 c 0,53,54
 164 199 164 199 165 206 c 0,55,56
 168 216 168 216 168 232 c 1,57,-1
 229 232 l 1,0,1
483 232 m 1,58,59
 480 181 480 181 454 155 c 128,-1,60
 428 129 428 129 379 129 c 0,61,62
 356 129 356 129 335 137 c 0,63,64
 315 146 315 146 302 162 c 0,65,66
 288 180 288 180 282 202 c 0,67,68
 274 228 274 228 274 257 c 2,69,-1
 274 308 l 2,70,71
 274 337 274 337 282 363 c 0,72,73
 288 386 288 386 303 403 c 0,74,75
 314 418 314 418 336 428 c 0,76,77
 353 436 353 436 380 436 c 0,78,79
 428 436 428 436 454 409 c 0,80,81
 480 381 480 381 483 331 c 1,82,-1
 423 331 l 1,83,84
 421 354 421 354 420 357 c 0,85,86
 419 366 419 366 413 374 c 0,87,88
 408 380 408 380 400 383 c 128,-1,89
 392 386 392 386 381 386 c 0,90,91
 368 386 368 386 360 382 c 0,92,93
 351 376 351 376 347 369 c 0,94,95
 340 357 340 357 339 345 c 0,96,97
 335 330 335 330 335 308 c 2,98,-1
 335 257 l 2,99,100
 335 239 335 239 337 221 c 0,101,102
 340 204 340 204 345 197 c 0,103,104
 349 189 349 189 358 183 c 0,105,106
 365 179 365 179 379 179 c 0,107,108
 388 179 388 179 398 181 c 0,109,110
 408 185 408 185 411 189 c 0,111,112
 416 195 416 195 419 206 c 0,113,114
 422 227 422 227 422 232 c 1,115,-1
 483 232 l 1,58,59
4 86 m 1,116,-1
 507 86 l 1,117,-1
 507 47 l 1,118,-1
 4 47 l 1,119,-1
 4 86 l 1,116,-1
EndSplineSet
EndChar

StartChar: discovery-binoculars
Encoding: 108 108 49
Width: 512
GlyphClass: 2
Flags: W
LayerCount: 2
Fore
SplineSet
219 373 m 0,0,1
 237 385 237 385 248 387 c 0,2,3
 270 390 270 390 287 377 c 0,4,5
 292 373 292 373 295 379 c 0,6,7
 306 412 306 412 337 419 c 0,8,9
 361 426 361 426 382 412.5 c 128,-1,10
 403 399 403 399 408 374 c 0,11,12
 411 363 411 363 419 349 c 0,13,14
 451 305 451 305 467 282 c 0,15,16
 475 272 475 272 480 267 c 0,17,18
 522 222 522 222 506 170 c 0,19,20
 490 109 490 109 434 94 c 0,21,22
 387 81 387 81 347.5 107 c 128,-1,23
 308 133 308 133 301 182 c 1,24,-1
 301 187 l 2,25,26
 301 195 301 195 294 197 c 0,27,28
 283 199 283 199 285 212 c 2,29,-1
 285 225 l 2,30,31
 285 228 285 228 284 228 c 2,32,-1
 282 228 l 1,33,34
 266 222 266 222 259 221 c 0,35,36
 248 220 248 220 230 227 c 0,37,38
 227 229 227 229 225.5 228 c 128,-1,39
 224 227 224 227 225 223 c 0,40,41
 225 210 225 210 224 204 c 0,42,43
 224 197 224 197 217 195 c 0,44,45
 211 194 211 194 209 185 c 0,46,47
 206 147 206 147 179 120 c 0,48,49
 157 99 157 99 125.5 92.5 c 128,-1,50
 94 86 94 86 66 98 c 0,51,52
 37 110 37 110 19.5 136.5 c 128,-1,53
 2 163 2 163 2 195 c 0,54,55
 2 238 2 238 31 267 c 0,56,57
 40 276 40 276 52 293.5 c 128,-1,58
 64 311 64 311 69 317 c 0,59,60
 91 349 91 349 97 356 c 0,61,62
 100 360 100 360 102 370 c 0,63,64
 106 392 106 392 122.5 407 c 128,-1,65
 139 422 139 422 161 422 c 0,66,67
 181 421 181 421 196.5 409 c 128,-1,68
 212 397 212 397 217 378 c 0,69,70
 217 374 217 374 219 373 c 0,0,1
482 193 m 128,-1,72
 482 224 482 224 459 247 c 128,-1,73
 436 270 436 270 405 270 c 0,74,75
 373 270 373 270 350.5 247.5 c 128,-1,76
 328 225 328 225 328 194 c 0,77,78
 328 161 328 161 350 138.5 c 128,-1,79
 372 116 372 116 405 116 c 0,80,81
 436 116 436 116 459 139 c 128,-1,71
 482 162 482 162 482 193 c 128,-1,72
110 116 m 128,-1,83
 142 116 142 116 164.5 138.5 c 128,-1,84
 187 161 187 161 187 193 c 128,-1,85
 187 225 187 225 164.5 247.5 c 128,-1,86
 142 270 142 270 110 270 c 128,-1,87
 78 270 78 270 55.5 247.5 c 128,-1,88
 33 225 33 225 33 193 c 128,-1,89
 33 161 33 161 55.5 138.5 c 128,-1,82
 78 116 78 116 110 116 c 128,-1,83
255 306 m 0,90,91
 242 306 242 306 233.5 297 c 128,-1,92
 225 288 225 288 225 276 c 128,-1,93
 225 264 225 264 234 255 c 128,-1,94
 243 246 243 246 255 246 c 128,-1,95
 267 246 267 246 275.5 255.5 c 128,-1,96
 284 265 284 265 284 277 c 0,97,98
 285 289 285 289 276 297.5 c 128,-1,99
 267 306 267 306 255 306 c 0,90,91
EndSplineSet
EndChar

StartChar: bitrate
Encoding: 109 109 50
Width: 512
GlyphClass: 2
Flags: W
LayerCount: 2
Fore
SplineSet
444 456 m 2,0,-1
 444 276 l 2,1,2
 444 267 444 267 435 267 c 2,3,-1
 254 267 l 2,4,5
 245 267 245 267 245 276 c 2,6,-1
 245 456 l 2,7,8
 245 466 245 466 254 466 c 2,9,-1
 434 466 l 2,10,11
 444 466 444 466 444 456 c 2,0,-1
226 192 m 2,12,-1
 226 54 l 2,13,14
 226 46 226 46 218 46 c 2,15,-1
 80 46 l 2,16,17
 72 46 72 46 72 54 c 2,18,-1
 72 192 l 2,19,20
 72 201 72 201 80 201 c 2,21,-1
 218 201 l 2,22,23
 226 201 226 201 226 192 c 2,12,-1
181 416 m 2,24,-1
 181 318 l 2,25,26
 181 309 181 309 172 309 c 2,27,-1
 76 309 l 2,28,29
 68 309 68 309 68 318 c 2,30,-1
 68 414 l 2,31,32
 68 422 68 422 76 422 c 2,33,-1
 175 422 l 2,34,35
 177 423 177 423 179 421 c 128,-1,36
 181 419 181 419 181 416 c 2,24,-1
414 176 m 2,37,-1
 414 103 l 2,38,39
 414 94 414 94 406 94 c 2,40,-1
 335 94 l 2,41,42
 327 94 327 94 327 103 c 2,43,-1
 327 173 l 2,44,45
 327 182 327 182 335 182 c 2,46,-1
 408 182 l 2,47,48
 414 182 414 182 414 176 c 2,37,-1
EndSplineSet
EndChar

StartChar: system-settings
Encoding: 110 110 51
Width: 512
GlyphClass: 2
Flags: W
LayerCount: 2
Fore
SplineSet
496 312 m 1,0,1
 485 355 485 355 463 389 c 1,2,3
 448 374 448 374 425 374 c 0,4,5
 388 374 388 374 375.5 408 c 128,-1,6
 363 442 363 442 383 466 c 1,7,8
 353 484 353 484 313 495 c 1,9,10
 311 473 311 473 297.5 458.5 c 128,-1,11
 284 444 284 444 260 444 c 0,12,13
 235 445 235 445 221 460.5 c 128,-1,14
 207 476 207 476 206 497 c 1,15,16
 161 488 161 488 122 463 c 1,17,18
 139 438 139 438 125.5 406.5 c 128,-1,19
 112 375 112 375 77 375 c 0,20,21
 59 375 59 375 46 385 c 1,22,23
 26 350 26 350 16 312 c 1,24,25
 46 309 46 309 58.5 282.5 c 128,-1,26
 71 256 71 256 58.5 230 c 128,-1,27
 46 204 46 204 16 201 c 1,28,29
 25 162 25 162 46 127 c 1,30,31
 61 145 61 145 87 145 c 0,32,33
 127 145 127 145 138.5 107.5 c 128,-1,34
 150 70 150 70 124 48 c 1,35,36
 162 24 162 24 205 15 c 1,37,38
 206 37 206 37 220.5 53 c 128,-1,39
 235 69 235 69 260 69 c 0,40,41
 284 69 284 69 298 53.5 c 128,-1,42
 312 38 312 38 313 16 c 1,43,44
 361 28 361 28 400 56 c 1,45,46
 378 80 378 80 390.5 115.5 c 128,-1,47
 403 151 403 151 441 151 c 0,48,49
 459 151 459 151 474 141 c 1,50,51
 490 174 490 174 496 201 c 1,52,53
 473 203 473 203 460 220 c 128,-1,54
 447 237 447 237 447 256.5 c 128,-1,55
 447 276 447 276 460 293 c 128,-1,56
 473 310 473 310 496 312 c 1,0,1
269 183 m 0,57,58
 231 177 231 177 204 204 c 128,-1,59
 177 231 177 231 183 269 c 0,60,61
 187 292 187 292 203.5 309 c 128,-1,62
 220 326 220 326 244 330 c 0,63,64
 282 336 282 336 309 308.5 c 128,-1,65
 336 281 336 281 329 243 c 0,66,67
 325 220 325 220 308.5 203.5 c 128,-1,68
 292 187 292 187 269 183 c 0,57,58
EndSplineSet
EndChar

StartChar: share
Encoding: 111 111 52
Width: 512
GlyphClass: 2
Flags: W
LayerCount: 2
Fore
SplineSet
508 374 m 0,0,1
 508 321 508 321 470 283 c 128,-1,2
 432 245 432 245 378 245 c 0,3,4
 325 245 325 245 287 283 c 128,-1,5
 249 321 249 321 249 374 c 0,6,7
 249 428 249 428 287 466 c 128,-1,8
 325 504 325 504 378 504 c 0,9,10
 432 504 432 504 470 466 c 128,-1,11
 508 428 508 428 508 374 c 0,0,1
135 250 m 0,12,13
 135 224 135 224 116 205 c 128,-1,14
 97 186 97 186 71 186 c 0,15,16
 44 186 44 186 25.5 205 c 128,-1,17
 7 224 7 224 7 250 c 0,18,19
 7 277 7 277 25.5 295.5 c 128,-1,20
 44 314 44 314 71 314 c 0,21,22
 97 314 97 314 116 295.5 c 128,-1,23
 135 277 135 277 135 250 c 0,12,13
297 67 m 128,-1,25
 297 41 297 41 278.5 22 c 128,-1,26
 260 3 260 3 233 3 c 0,27,28
 207 3 207 3 188 22 c 128,-1,29
 169 41 169 41 169 67 c 128,-1,30
 169 93 169 93 188 112 c 128,-1,31
 207 131 207 131 233 131 c 0,32,33
 260 131 260 131 278.5 112 c 128,-1,24
 297 93 297 93 297 67 c 128,-1,25
100 278 m 1,34,-1
 287 372 l 1,35,-1
 288 342 l 1,36,-1
 101 248 l 1,37,-1
 100 278 l 1,34,-1
93 234 m 1,38,-1
 246 91 l 1,39,-1
 219 79 l 1,40,-1
 65 222 l 1,41,-1
 93 234 l 1,38,-1
EndSplineSet
EndChar

StartChar: volume-mute-ooyala-defualt
Encoding: 112 112 53
Width: 512
GlyphClass: 2
Flags: W
LayerCount: 2
Fore
SplineSet
504 198 m 0,0,1
 510 204 510 204 504 211 c 2,2,-1
 465 250 l 2,3,4
 459 256 459 256 465 262 c 2,5,-1
 504 301 l 2,6,7
 510 308 510 308 504 314 c 128,-1,8
 498 320 498 320 491 314 c 2,9,-1
 452 275 l 2,10,11
 446 269 446 269 440 275 c 2,12,-1
 401 314 l 2,13,14
 395 320 395 320 388 314 c 0,15,16
 382 308 382 308 388 301 c 2,17,-1
 427 262 l 2,18,19
 433 256 433 256 427 250 c 2,20,-1
 388 211 l 2,21,22
 382 205 382 205 388 198 c 0,23,24
 394 192 394 192 401 198 c 2,25,-1
 440 237 l 2,26,27
 446 243 446 243 452 237 c 2,28,-1
 491 198 l 2,29,30
 498 191 498 191 504 198 c 0,0,1
68 135 m 2,31,-1
 16 135 l 2,32,33
 7 135 7 135 7 145 c 2,34,-1
 7 355 l 2,35,36
 7 365 7 365 16 365 c 2,37,-1
 68 365 l 2,38,39
 70 365 70 365 70 363 c 2,40,-1
 70 137 l 2,41,42
 72 135 72 135 68 135 c 2,31,-1
119 159 m 2,43,-1
 119 349 l 2,44,45
 119 354 119 354 123 358.5 c 128,-1,46
 127 363 127 363 132 363 c 2,47,-1
 192 363 l 2,48,49
 194 363 194 363 194 364 c 2,50,-1
 309 445 l 2,51,52
 311 447 311 447 313.5 445.5 c 128,-1,53
 316 444 316 444 316 441 c 2,54,-1
 316 71 l 2,55,56
 316 69 316 69 313.5 67.5 c 128,-1,57
 311 66 311 66 309 67 c 2,58,-1
 190 144 l 1,59,-1
 188 144 l 1,60,-1
 132 144 l 2,61,62
 119 144 119 144 119 159 c 2,43,-1
EndSplineSet
EndChar

StartChar: fast-forward-modern
Encoding: 113 113 54
Width: 512
GlyphClass: 2
Flags: W
LayerCount: 2
Fore
SplineSet
30 93 m 1,0,-1
 27 94 l 2,1,2
 23 97 23 97 23 100 c 2,3,-1
 23 412 l 2,4,5
 23 416 23 416 26 417 c 2,6,-1
 29 419 l 1,7,-1
 32 417 l 1,8,-1
 311 256 l 1,9,-1
 32 95 l 1,10,-1
 30 93 l 1,0,-1
33 405 m 1,11,-1
 33 107 l 1,12,-1
 291 256 l 1,13,-1
 33 405 l 1,11,-1
208 93 m 1,14,-1
 205 94 l 2,15,16
 201 95 201 95 201 100 c 2,17,-1
 201 172 l 1,18,-1
 211 172 l 1,19,-1
 211 106 l 1,20,-1
 470 256 l 1,21,-1
 210 405 l 1,22,-1
 210 337 l 1,23,-1
 201 337 l 1,24,-1
 201 412 l 2,25,26
 201 416 201 416 204 417 c 2,27,-1
 206 419 l 1,28,-1
 209 417 l 1,29,-1
 489 256 l 1,30,-1
 210 95 l 1,31,-1
 208 93 l 1,14,-1
EndSplineSet
EndChar

StartChar: system-left-arrow
Encoding: 114 114 55
Width: 512
GlyphClass: 2
Flags: W
LayerCount: 2
Fore
SplineSet
372 504 m 0,0,1
 379 504 379 504 383 500 c 0,2,3
 394 489 394 489 383 478 c 2,4,-1
 161 256 l 1,5,-1
 383 34 l 2,6,7
 394 23 394 23 383 12 c 128,-1,8
 372 1 372 1 361 12 c 2,9,-1
 129 245 l 2,10,11
 118 256 118 256 129 266 c 2,12,-1
 361 500 l 2,13,14
 366 504 366 504 372 504 c 0,0,1
EndSplineSet
EndChar

StartChar: system-right-arrow
Encoding: 115 115 56
Width: 512
GlyphClass: 2
Flags: W
LayerCount: 2
Fore
SplineSet
140 8 m 0,0,1
 133 8 133 8 129 12 c 0,2,3
 118 23 118 23 129 34 c 2,4,-1
 351 256 l 1,5,-1
 129 478 l 2,6,7
 118 489 118 489 129 500 c 128,-1,8
 140 511 140 511 151 500 c 2,9,-1
 383 267 l 2,10,11
 394 256 394 256 383 245 c 2,12,-1
 151 12 l 2,13,14
 146 8 146 8 140 8 c 0,0,1
EndSplineSet
EndChar

StartChar: system-more-information
Encoding: 116 116 57
Width: 512
GlyphClass: 2
Flags: W
LayerCount: 2
Fore
SplineSet
256 30 m 128,-1,1
 163 30 163 30 96.5 96.5 c 128,-1,2
 30 163 30 163 30 256 c 128,-1,3
 30 349 30 349 96.5 415.5 c 128,-1,4
 163 482 163 482 256 482 c 128,-1,5
 349 482 349 482 415.5 415.5 c 128,-1,6
 482 349 482 349 482 256 c 128,-1,7
 482 163 482 163 415.5 96.5 c 128,-1,0
 349 30 349 30 256 30 c 128,-1,1
256 446 m 128,-1,9
 177 446 177 446 121.5 390.5 c 128,-1,10
 66 335 66 335 66 256 c 128,-1,11
 66 177 66 177 121.5 121.5 c 128,-1,12
 177 66 177 66 256 66 c 128,-1,13
 335 66 335 66 390.5 121.5 c 128,-1,14
 446 177 446 177 446 256 c 128,-1,15
 446 335 446 335 390.5 390.5 c 128,-1,8
 335 446 335 446 256 446 c 128,-1,9
230 358 m 128,-1,17
 230 362 230 362 232 368 c 0,18,19
 233 371 233 371 238 376 c 0,20,21
 242 380 242 380 246 381 c 0,22,23
 252 383 252 383 257 383 c 0,24,25
 264 383 264 383 267 381 c 0,26,27
 272 380 272 380 275 376 c 0,28,29
 279 373 279 373 281 368 c 0,30,31
 283 362 283 362 283 358 c 128,-1,32
 283 354 283 354 281 348 c 0,33,34
 280 344 280 344 275 339 c 0,35,36
 272 336 272 336 267 334 c 0,37,38
 261 332 261 332 257 332 c 0,39,40
 252 332 252 332 246 334 c 0,41,42
 245 335 245 335 242 336.5 c 128,-1,43
 239 338 239 338 238 339 c 128,-1,44
 237 340 237 340 236 342 c 0,45,46
 233 346 233 346 232 348 c 0,47,16
 230 354 230 354 230 358 c 128,-1,17
280 129 m 1,48,-1
 232 129 l 1,49,-1
 232 288 l 1,50,-1
 280 288 l 1,51,-1
 280 129 l 1,48,-1
EndSplineSet
EndChar

StartChar: discovery-tag
Encoding: 117 117 58
Width: 512
GlyphClass: 2
Flags: W
LayerCount: 2
Fore
SplineSet
256 122 m 2,0,-1
 238 122 l 1,1,-1
 216 122 l 1,2,-1
 198 122 l 2,3,4
 189 122 189 122 189 113 c 1,5,6
 190 113 190 113 190 85 c 2,7,-1
 189 57 l 2,8,9
 189 38 189 38 175.5 24.5 c 128,-1,10
 162 11 162 11 143 10 c 0,11,12
 124 10 124 10 110 23.5 c 128,-1,13
 96 37 96 37 95 57 c 2,14,-1
 95 114 l 2,15,16
 95 118 95 118 93.5 120 c 128,-1,17
 92 122 92 122 88 121 c 2,18,-1
 57 121 l 2,19,20
 38 121 38 121 24 135 c 128,-1,21
 10 149 10 149 10 168 c 0,22,23
 10 188 10 188 23.5 201.5 c 128,-1,24
 37 215 37 215 57 216 c 2,25,-1
 90 216 l 2,26,27
 95 216 95 216 95 221 c 2,28,-1
 95 316 l 2,29,30
 95 321 95 321 89 321 c 2,31,-1
 56 321 l 2,32,33
 37 321 37 321 23.5 335 c 128,-1,34
 10 349 10 349 10 368 c 128,-1,35
 10 387 10 387 23 400.5 c 128,-1,36
 36 414 36 414 55 415 c 2,37,-1
 89 415 l 2,38,39
 94 415 94 415 94 420 c 0,40,41
 94 456 94 456 95 462 c 0,42,43
 98 480 98 480 113 491.5 c 128,-1,44
 128 503 128 503 145 501 c 0,45,46
 164 500 164 500 176.5 486.5 c 128,-1,47
 189 473 189 473 189 454 c 2,48,-1
 189 420 l 2,49,50
 189 415 189 415 194 415 c 2,51,-1
 317 415 l 2,52,53
 322 415 322 415 322 420 c 0,54,55
 322 445 322 445 323 458 c 0,56,57
 325 477 325 477 338.5 489.5 c 128,-1,58
 352 502 352 502 371 501 c 128,-1,59
 390 500 390 500 403 486.5 c 128,-1,60
 416 473 416 473 416 454 c 2,61,-1
 416 438 l 2,62,63
 417 422 417 422 416 422 c 1,64,65
 416 415 416 415 425 415 c 2,66,-1
 455 415 l 2,67,68
 474 414 474 414 487.5 400.5 c 128,-1,69
 501 387 501 387 501 368 c 0,70,71
 501 348 501 348 487.5 334.5 c 128,-1,72
 474 321 474 321 455 321 c 2,73,-1
 422 321 l 2,74,75
 417 321 417 321 417 315 c 2,76,-1
 417 220 l 2,77,78
 417 215 417 215 422 215 c 2,79,-1
 455 215 l 2,80,81
 474 215 474 215 487.5 201.5 c 128,-1,82
 501 188 501 188 501 168 c 128,-1,83
 501 148 501 148 488 134.5 c 128,-1,84
 475 121 475 121 456 121 c 2,85,-1
 424 121 l 2,86,87
 416 121 416 121 416 114 c 0,88,89
 417 84 417 84 416 56 c 0,90,91
 416 38 416 38 404.5 25 c 128,-1,92
 393 12 393 12 376 10 c 0,93,94
 357 8 357 8 342.5 18 c 128,-1,95
 328 28 328 28 324 46 c 0,96,97
 322 52 322 52 322 67 c 2,98,-1
 322 115 l 2,99,100
 322 121 322 121 316 121 c 0,101,102
 306 121 306 121 286 121.5 c 128,-1,103
 266 122 266 122 256 122 c 2,0,-1
195 321 m 2,104,105
 189 321 189 321 189 315 c 2,106,-1
 189 222 l 2,107,108
 189 216 189 216 195 216 c 2,109,-1
 316 216 l 2,110,111
 323 216 323 216 323 222 c 2,112,-1
 323 315 l 2,113,114
 323 321 323 321 316 321 c 2,115,-1
 256 321 l 1,116,-1
 195 321 l 2,104,105
EndSplineSet
EndChar

StartChar: play-chubby
Encoding: 118 118 59
Width: 512
GlyphClass: 2
Flags: W
LayerCount: 2
Fore
SplineSet
467 269 m 2,0,-1
 60 505 l 2,1,2
 52 509 52 509 44.5 504.5 c 128,-1,3
 37 500 37 500 37 492 c 2,4,-1
 37 20 l 2,5,6
 37 12 37 12 45 7.5 c 128,-1,7
 53 3 53 3 60 7 c 2,8,-1
 467 243 l 2,9,10
 475 248 475 248 475 256 c 128,-1,11
 475 264 475 264 467 269 c 2,0,-1
EndSplineSet
EndChar

StartChar: play-modern
Encoding: 119 119 60
Width: 512
GlyphClass: 2
Flags: W
LayerCount: 2
Fore
SplineSet
67 33 m 1,0,-1
 67 479 l 1,1,-1
 453 256 l 1,2,-1
 67 33 l 1,0,-1
82 452 m 1,3,-1
 82 60 l 1,4,-1
 422 256 l 1,5,-1
 82 452 l 1,3,-1
EndSplineSet
EndChar

StartChar: cc-fill
Encoding: 120 120 61
Width: 512
GlyphClass: 2
Flags: W
LayerCount: 2
Fore
SplineSet
476 90 m 2,0,-1
 36 90 l 2,1,2
 29 90 29 90 29 98 c 2,3,-1
 29 414 l 2,4,5
 29 422 29 422 36 422 c 2,6,-1
 476 422 l 2,7,8
 483 422 483 422 483 414 c 2,9,-1
 483 98 l 2,10,11
 483 90 483 90 476 90 c 2,0,-1
191 214 m 1,12,13
 191 205 191 205 189 191 c 0,14,15
 185 181 185 181 182 178 c 0,16,17
 176 172 176 172 172 170 c 0,18,19
 162 168 162 168 156 168 c 0,20,21
 143 168 143 168 138 172 c 0,22,23
 130 177 130 177 126 183 c 0,24,25
 122 190 122 190 120 204 c 0,26,27
 119 212 119 212 119 234 c 2,28,-1
 119 277 l 2,29,30
 119 300 119 300 121 308 c 0,31,32
 123 321 123 321 127 328 c 0,33,34
 134 337 134 337 139 339 c 0,35,36
 146 343 146 343 157 343 c 0,37,38
 169 343 169 343 173 341 c 0,39,40
 181 337 181 337 184 333 c 128,-1,41
 187 329 187 329 190 319 c 0,42,43
 191 311 191 311 193 296 c 1,44,-1
 244 296 l 1,45,46
 241 338 241 338 220 362 c 128,-1,47
 199 386 199 386 157 386 c 0,48,49
 138 386 138 386 120 378 c 0,50,51
 104 372 104 372 92 358 c 0,52,53
 80 345 80 345 74 324 c 0,54,55
 68 304 68 304 68 278 c 2,56,-1
 68 234 l 2,57,58
 68 209 68 209 74 188 c 128,-1,59
 80 167 80 167 92 154 c 0,60,61
 102 141 102 141 119 134 c 0,62,63
 137 126 137 126 157 126 c 0,64,65
 196 126 196 126 220 148 c 0,66,67
 243 172 243 172 244 214 c 1,68,-1
 191 214 l 1,12,13
394 214 m 1,69,70
 392 194 392 194 391 191 c 0,71,72
 389 182 389 182 385 178 c 0,73,74
 375 170 375 170 374 170 c 0,75,76
 369 169 369 169 357 169 c 0,77,78
 346 169 346 169 339 173 c 0,79,80
 333 176 333 176 328 184 c 0,81,82
 324 191 324 191 322 204 c 0,83,84
 321 213 321 213 321 234 c 2,85,-1
 321 278 l 2,86,87
 321 300 321 300 323 308 c 0,88,89
 325 322 325 322 329 329 c 0,90,91
 333 335 333 335 341 340 c 0,92,93
 348 344 348 344 358 344 c 0,94,95
 367 344 367 344 375 342 c 0,96,97
 381 339 381 339 386 334 c 0,98,99
 390 326 390 326 392 319 c 0,100,101
 394 307 394 307 394 297 c 1,102,-1
 445 297 l 1,103,104
 442 340 442 340 421 363 c 128,-1,105
 400 386 400 386 359 386 c 0,106,107
 341 386 341 386 322 379 c 0,108,109
 306 372 306 372 294 358 c 0,110,111
 283 347 283 347 276 325 c 0,112,113
 270 304 270 304 270 278 c 2,114,-1
 270 235 l 2,115,116
 270 209 270 209 276 188 c 0,117,118
 282 170 282 170 293 155 c 0,119,120
 303 142 303 142 321 134 c 0,121,122
 340 127 340 127 358 127 c 0,123,124
 400 127 400 127 421 149 c 0,125,126
 444 172 444 172 445 214 c 1,127,-1
 394 214 l 1,69,70
EndSplineSet
EndChar

StartChar: discovery-trending
Encoding: 121 121 62
Width: 512
GlyphClass: 2
Flags: W
LayerCount: 2
Fore
SplineSet
328 298 m 1,0,1
 292 248 292 248 275 224 c 0,2,3
 272 219 272 219 240 174 c 0,4,5
 222 147 222 147 200 172 c 0,6,7
 165 211 165 211 151 228 c 0,8,9
 148 232 148 232 144 228 c 0,10,11
 107 182 107 182 94 167 c 0,12,13
 88 161 88 161 93 153 c 0,14,15
 142 74 142 74 236 64 c 128,-1,16
 330 54 330 54 395 122 c 0,17,18
 449 178 449 178 449.5 255.5 c 128,-1,19
 450 333 450 333 396 389 c 0,20,21
 314 473 314 473 202 441 c 0,22,23
 93 410 93 410 67 295 c 0,24,25
 64 287 64 287 62 258 c 0,26,27
 62 246 62 246 52 246 c 0,28,29
 41 246 41 246 41 258 c 0,30,31
 43 319 43 319 75 371 c 0,32,33
 131 458 131 458 234.5 468.5 c 128,-1,34
 338 479 338 479 410 404 c 0,35,36
 497 312 497 312 459 191 c 0,37,38
 421 73 421 73 298 47 c 0,39,40
 233 33 233 33 171.5 59 c 128,-1,41
 110 85 110 85 75 142 c 0,42,43
 63 161 63 161 77 180 c 0,44,45
 85 190 85 190 102.5 211 c 128,-1,46
 120 232 120 232 129 243 c 0,47,48
 146 263 146 263 163 244 c 0,49,50
 200 203 200 203 214 186 c 0,51,52
 219 181 219 181 223 187 c 0,53,54
 289 280 289 280 305 303 c 0,55,56
 308 306 308 306 307 307 c 0,57,58
 305 309 305 309 302 306 c 0,59,60
 287 301 287 301 259 289 c 0,61,62
 247 284 247 284 244 294 c 0,63,64
 239 303 239 303 251 308 c 0,65,66
 258 311 258 311 286.5 322.5 c 128,-1,67
 315 334 315 334 330 340 c 0,68,69
 337 343 337 343 341.5 340 c 128,-1,70
 346 337 346 337 346 330 c 0,71,72
 347 316 347 316 349.5 288.5 c 128,-1,73
 352 261 352 261 353 247 c 0,74,75
 355 235 355 235 344 233 c 0,76,77
 334 233 334 233 332 245 c 0,78,79
 330 281 330 281 328 298 c 1,0,1
EndSplineSet
EndChar

StartChar: share-arrow
Encoding: 122 122 63
Width: 512
GlyphClass: 2
Flags: W
LayerCount: 2
Fore
SplineSet
252 56 m 1,0,-1
 392 56 l 2,1,2
 427 56 427 56 446.5 83.5 c 128,-1,3
 466 111 466 111 454 145 c 0,4,5
 441 184 441 184 398 186 c 2,6,-1
 381 186 l 2,7,8
 370 188 370 188 370 199 c 0,9,10
 370 211 370 211 381 211 c 2,11,-1
 406 211 l 1,12,-1
 434 211 l 1,13,-1
 458 211 l 2,14,15
 481 209 481 209 483 184 c 2,16,-1
 484 148 l 2,17,18
 484 112 484 112 483 112 c 0,19,20
 481 78 481 78 455 54.5 c 128,-1,21
 429 31 429 31 393 30 c 2,22,-1
 111 30 l 2,23,24
 71 31 71 31 45 56.5 c 128,-1,25
 19 82 19 82 18 122 c 2,26,-1
 18 391 l 2,27,28
 18 431 18 431 44 456.5 c 128,-1,29
 70 482 70 482 111 482 c 2,30,-1
 215 482 l 2,31,32
 233 482 233 482 233 470 c 0,33,34
 232 457 232 457 215 457 c 2,35,-1
 113 457 l 2,36,37
 82 457 82 457 63 438.5 c 128,-1,38
 44 420 44 420 44 388 c 2,39,-1
 44 125 l 2,40,41
 44 93 44 93 62.5 74.5 c 128,-1,42
 81 56 81 56 112 56 c 2,43,-1
 252 56 l 1,0,-1
424 295 m 1,44,45
 416 313 416 313 402 343 c 0,46,47
 397 355 397 355 383 354 c 0,48,49
 319 346 319 346 269 288 c 0,50,51
 230 244 230 244 199 168 c 0,52,53
 199 167 199 167 197.5 163 c 128,-1,54
 196 159 196 159 195 157 c 0,55,56
 195 156 195 156 194 154 c 128,-1,57
 193 152 193 152 192.5 150.5 c 128,-1,58
 192 149 192 149 190 148.5 c 128,-1,59
 188 148 188 148 186 148 c 0,60,61
 183 149 183 149 183 159 c 0,62,63
 188 205 188 205 189 208 c 0,64,65
 203 290 203 290 236 342 c 0,66,67
 280 411 280 411 352 431 c 0,68,69
 362 434 362 434 358 443 c 0,70,71
 355 449 355 449 345 474 c 0,72,73
 343 479 343 479 344.5 480.5 c 128,-1,74
 346 482 346 482 351 481 c 2,75,-1
 489 439 l 2,76,77
 496 436 496 436 493 430 c 0,78,79
 470 387 470 387 424 295 c 1,44,45
EndSplineSet
EndChar

StartChar: braceleft
Encoding: 123 123 64
Width: 512
GlyphClass: 2
Flags: W
LayerCount: 2
Fore
SplineSet
46 387 m 1,0,-1
 459 387 l 1,1,-1
 459 129 l 1,2,-1
 369 129 l 1,3,-1
 330 181 l 1,4,-1
 407 181 l 1,5,-1
 407 335 l 1,6,-1
 98 335 l 1,7,-1
 98 181 l 1,8,-1
 175 181 l 1,9,-1
 136 129 l 1,10,-1
 46 129 l 1,11,-1
 46 387 l 1,0,-1
253 232 m 1,12,-1
 356 78 l 1,13,-1
 149 78 l 1,14,-1
 253 232 l 1,12,-1
EndSplineSet
EndChar

StartChar: braceright
Encoding: 125 125 65
Width: 510
GlyphClass: 2
Flags: W
LayerCount: 2
Fore
SplineSet
86 320 m 1,0,-1
 42 320 l 1,1,-1
 42 409 l 1,2,-1
 462 409 l 1,3,-1
 462 77 l 1,4,-1
 285 77 l 1,5,-1
 285 121 l 1,6,-1
 418 121 l 1,7,-1
 418 364 l 1,8,-1
 86 364 l 1,9,-1
 86 320 l 1,0,-1
42 276 m 1,10,11
 96 276 96 276 142 249.5 c 128,-1,12
 188 223 188 223 214.5 177 c 128,-1,13
 241 131 241 131 241 77 c 1,14,-1
 210 77 l 1,15,16
 210 147 210 147 161 196 c 128,-1,17
 112 245 112 245 42 245 c 1,18,-1
 42 276 l 1,10,11
42 210 m 1,19,20
 97 210 97 210 136 171 c 128,-1,21
 175 132 175 132 175 77 c 1,22,-1
 145 77 l 1,23,24
 145 120 145 120 115 150 c 128,-1,25
 85 180 85 180 42 180 c 1,26,-1
 42 210 l 1,19,20
75 143 m 128,-1,28
 89 143 89 143 98.5 133.5 c 128,-1,29
 108 124 108 124 108 110 c 0,30,31
 108 104 108 104 105.5 97.5 c 128,-1,32
 103 91 103 91 98.5 86.5 c 128,-1,33
 94 82 94 82 88 79.5 c 128,-1,34
 82 77 82 77 75 77 c 0,35,36
 61 77 61 77 51.5 87 c 128,-1,37
 42 97 42 97 42 110.5 c 128,-1,38
 42 124 42 124 51.5 133.5 c 128,-1,27
 61 143 61 143 75 143 c 128,-1,28
EndSplineSet
EndChar

StartChar: colon
Encoding: 58 58 66
Width: 510
VWidth: 0
LayerCount: 2
Fore
SplineSet
20 313.666992188 m 1,0,1
 117.600585938 313.666992188 117.600585938 313.666992188 186.133789062 245.133789062 c 128,-1,2
 254.666992188 176.600585938 254.666992188 176.600585938 254.666992188 79 c 1,3,-1
 212 79 l 1,4,5
 212 159 212 159 156 215 c 128,-1,6
 100 271 100 271 20 271 c 1,7,-1
 20 313.666992188 l 1,0,1
446.666992188 463 m 2,8,9
 455.30859375 463 455.30859375 463 463.20703125 459.607421875 c 128,-1,10
 471.10546875 456.213867188 471.10546875 456.213867188 476.826171875 450.493164062 c 128,-1,11
 482.546875 444.771484375 482.546875 444.771484375 485.940429688 436.873046875 c 128,-1,12
 489.333007812 428.975585938 489.333007812 428.975585938 489.333007812 420.333007812 c 2,13,-1
 489.333007812 121.666992188 l 2,14,15
 489.333007812 104.06640625 489.333007812 104.06640625 476.799804688 91.533203125 c 128,-1,16
 464.266601562 79 464.266601562 79 446.666992188 79 c 2,17,-1
 297.333007812 79 l 1,18,-1
 297.333007812 121.666992188 l 1,19,-1
 446.666992188 121.666992188 l 1,20,-1
 446.666992188 420.333007812 l 1,21,-1
 62.6669921875 420.333007812 l 1,22,-1
 62.6669921875 356.333007812 l 1,23,-1
 20 356.333007812 l 1,24,-1
 20 420.333007812 l 2,25,26
 20 437.93359375 20 437.93359375 32.533203125 450.466796875 c 128,-1,27
 45.06640625 463 45.06640625 463 62.6669921875 463 c 2,28,-1
 446.666992188 463 l 2,8,9
20 143 m 1,29,30
 47 143 47 143 65.5 124.5 c 128,-1,31
 84 106 84 106 84 79 c 1,32,-1
 20 79 l 1,33,-1
 20 143 l 1,29,30
20 228.333007812 m 1,34,35
 82.400390625 228.333007812 82.400390625 228.333007812 125.866210938 184.866210938 c 128,-1,36
 169.333007812 141.400390625 169.333007812 141.400390625 169.333007812 79 c 1,37,-1
 126.666992188 79 l 1,38,39
 126.666992188 123.799804688 126.666992188 123.799804688 95.7333984375 154.733398438 c 128,-1,40
 64.7998046875 185.666992188 64.7998046875 185.666992188 20 185.666992188 c 1,41,-1
 20 228.333007812 l 1,34,35
EndSplineSet
EndChar

StartChar: semicolon
Encoding: 59 59 67
Width: 510
VWidth: 0
LayerCount: 2
Fore
SplineSet
20 143 m 5,0,1
 47 143 47 143 65.5 124.5 c 132,-1,2
 84 106 84 106 84 79 c 5,3,-1
 20 79 l 5,4,-1
 20 143 l 5,0,1
62.6669921875 420.333007812 m 5,5,-1
 62.6669921875 356.333007812 l 5,6,-1
 20 356.333007812 l 5,7,-1
 20 420.333007812 l 6,8,9
 20 437.93359375 20 437.93359375 32.533203125 450.466796875 c 132,-1,10
 45.06640625 463 45.06640625 463 62.6669921875 463 c 6,11,-1
 446.666992188 463 l 6,12,13
 455.30859375 463 455.30859375 463 463.20703125 459.607421875 c 132,-1,14
 471.10546875 456.213867188 471.10546875 456.213867188 476.826171875 450.493164062 c 132,-1,15
 482.546875 444.771484375 482.546875 444.771484375 485.940429688 436.873046875 c 132,-1,16
 489.333007812 428.975585938 489.333007812 428.975585938 489.333007812 420.333007812 c 6,17,-1
 489.333007812 121.666992188 l 6,18,19
 489.333007812 104.06640625 489.333007812 104.06640625 476.799804688 91.533203125 c 132,-1,20
 464.266601562 79 464.266601562 79 446.666992188 79 c 6,21,-1
 297.333007812 79 l 5,22,-1
 297.333007812 121.666992188 l 5,23,-1
 446.666992188 121.666992188 l 5,24,-1
 446.666992188 420.333007812 l 5,25,-1
 62.6669921875 420.333007812 l 5,5,-1
404 377.666992188 m 5,26,-1
 404 164.333007812 l 5,27,-1
 284.533203125 164.333007812 l 5,28,29
 263.733398438 228.333007812 263.733398438 228.333007812 216.533203125 275.533203125 c 132,-1,30
 169.333984375 322.733398438 169.333984375 322.733398438 105.333007812 343.533203125 c 5,31,-1
 105.333007812 377.666992188 l 5,32,-1
 404 377.666992188 l 5,26,-1
126.666992188 79 m 5,33,34
 126.666992188 123.799804688 126.666992188 123.799804688 95.7333984375 154.733398438 c 132,-1,35
 64.7998046875 185.666992188 64.7998046875 185.666992188 20 185.666992188 c 5,36,-1
 20 228.333007812 l 5,37,38
 82.400390625 228.333007812 82.400390625 228.333007812 125.866210938 184.866210938 c 132,-1,39
 169.333007812 141.400390625 169.333007812 141.400390625 169.333007812 79 c 5,40,-1
 126.666992188 79 l 5,33,34
212 79 m 5,41,42
 212 159 212 159 156 215 c 132,-1,43
 100 271 100 271 20 271 c 5,44,-1
 20 313.666992188 l 5,45,46
 117.600585938 313.666992188 117.600585938 313.666992188 186.133789062 245.133789062 c 132,-1,47
 254.666992188 176.600585938 254.666992188 176.600585938 254.666992188 79 c 5,48,-1
 212 79 l 5,41,42
EndSplineSet
EndChar
